{"glyphs":{"0":{"ha":833,"x_min":100,"x_max":733,"o":"m 218 982 l 100 861 l 100 174 l 218 0 l 618 0 l 733 121 l 733 810 l 618 982 l 218 982 m 231 822 l 268 863 l 553 863 l 601 789 l 601 747 l 231 363 l 231 822 m 231 192 l 231 201 l 601 588 l 601 158 l 565 119 l 281 119 l 231 192 z "},"1":{"ha":833,"x_min":100,"x_max":733,"o":"m 357 982 l 117 735 l 185 631 l 351 804 l 351 119 l 100 119 l 100 0 l 733 0 l 733 119 l 483 119 l 483 982 l 357 982 z "},"2":{"ha":833,"x_min":99,"x_max":735,"o":"m 219 982 l 99 858 l 165 760 l 269 863 l 553 863 l 635 740 l 101 188 l 101 0 l 735 0 l 735 119 l 231 119 l 231 151 l 735 672 l 735 815 l 624 982 l 219 982 z "},"3":{"ha":833,"x_min":99,"x_max":735,"o":"m 99 982 l 99 863 l 581 863 l 310 585 l 310 468 l 514 468 l 604 338 l 604 164 l 560 119 l 99 119 l 99 0 l 613 0 l 735 126 l 735 356 l 585 579 l 469 579 l 735 853 l 735 982 l 99 982 z "},"4":{"ha":833,"x_min":57,"x_max":776,"o":"m 501 982 l 57 524 l 192 325 l 561 325 l 561 0 l 693 0 l 693 325 l 776 325 l 776 446 l 693 446 l 693 982 l 501 982 m 208 508 l 561 872 l 561 446 l 251 446 l 208 508 z "},"5":{"ha":833,"x_min":99,"x_max":735,"o":"m 99 982 l 99 668 l 172 560 l 513 560 l 603 431 l 603 164 l 558 118 l 99 118 l 99 0 l 613 0 l 735 126 l 735 449 l 575 681 l 236 681 l 229 694 l 229 863 l 706 863 l 706 982 l 99 982 z "},"6":{"ha":833,"x_min":100,"x_max":733,"o":"m 217 982 l 100 861 l 100 176 l 211 0 l 568 0 l 733 169 l 733 483 l 668 579 l 317 579 l 231 492 l 231 824 l 268 863 l 621 863 l 621 982 l 217 982 m 231 193 l 231 322 l 367 458 l 601 458 l 601 206 l 518 119 l 282 119 l 231 193 z "},"7":{"ha":833,"x_min":100,"x_max":733,"o":"m 100 982 l 100 863 l 601 863 l 601 825 l 210 425 l 210 0 l 342 0 l 342 388 l 733 788 l 733 982 l 100 982 z "},"8":{"ha":833,"x_min":100,"x_max":733,"o":"m 314 982 l 100 760 l 100 636 l 213 471 l 226 471 l 100 346 l 100 174 l 218 0 l 569 0 l 733 172 l 733 326 l 611 508 l 733 636 l 733 826 l 631 982 l 314 982 m 231 656 l 231 725 l 365 863 l 564 863 l 601 807 l 601 669 l 514 583 l 279 583 l 231 656 m 231 193 l 231 310 l 378 464 l 496 464 l 601 307 l 601 206 l 514 119 l 281 119 l 231 193 z "},"9":{"ha":833,"x_min":100,"x_max":733,"o":"m 174 982 l 100 906 l 100 685 l 253 458 l 601 458 l 601 246 l 492 119 l 156 119 l 156 0 l 546 0 l 733 210 l 733 753 l 581 982 l 174 982 m 231 706 l 231 863 l 514 863 l 601 732 l 601 579 l 315 579 l 231 706 z "},"A":{"ha":833,"x_min":111,"x_max":722,"o":"m 342 972 l 111 735 l 111 0 l 240 0 l 240 435 l 592 435 l 592 0 l 722 0 l 722 972 l 342 972 m 240 701 l 389 853 l 592 853 l 592 554 l 240 554 l 240 701 z "},"Á":{"ha":833,"x_min":111,"x_max":722,"o":"m 342 972 l 111 735 l 111 0 l 240 0 l 240 435 l 592 435 l 592 0 l 722 0 l 722 972 l 342 972 m 240 701 l 389 853 l 592 853 l 592 554 l 240 554 l 240 701 m 406 1024 l 690 1161 l 614 1268 l 356 1099 l 406 1024 z "},"Ă":{"ha":833,"x_min":111,"x_max":769,"o":"m 342 972 l 111 735 l 111 0 l 240 0 l 240 435 l 592 435 l 592 0 l 722 0 l 722 972 l 342 972 m 240 701 l 389 853 l 592 853 l 592 554 l 240 554 l 240 701 m 286 1174 l 286 1260 l 439 1260 l 439 1131 l 617 1131 l 617 1260 l 769 1260 l 769 1174 l 625 1028 l 431 1028 l 286 1174 z "},"Â":{"ha":833,"x_min":111,"x_max":758,"o":"m 342 972 l 111 735 l 111 0 l 240 0 l 240 435 l 592 435 l 592 0 l 722 0 l 722 972 l 342 972 m 240 701 l 389 853 l 592 853 l 592 554 l 240 554 l 240 701 m 563 1240 l 494 1240 l 296 1090 l 363 1018 l 526 1121 l 693 1018 l 758 1090 l 563 1240 z "},"Ä":{"ha":833,"x_min":111,"x_max":750,"o":"m 342 972 l 111 735 l 111 0 l 240 0 l 240 435 l 592 435 l 592 0 l 722 0 l 722 972 l 342 972 m 240 701 l 389 853 l 592 853 l 592 554 l 240 554 l 240 701 m 306 1026 l 306 1179 l 458 1179 l 458 1026 l 306 1026 m 597 1026 l 597 1179 l 750 1179 l 750 1026 l 597 1026 z "},"À":{"ha":833,"x_min":111,"x_max":722,"o":"m 342 972 l 111 735 l 111 0 l 240 0 l 240 435 l 592 435 l 592 0 l 722 0 l 722 972 l 342 972 m 240 701 l 389 853 l 592 853 l 592 554 l 240 554 l 240 701 m 650 1021 l 700 1096 l 442 1265 l 365 1158 l 650 1021 z "},"Ā":{"ha":833,"x_min":111,"x_max":722,"o":"m 342 972 l 111 735 l 111 0 l 240 0 l 240 435 l 592 435 l 592 0 l 722 0 l 722 972 l 342 972 m 240 701 l 389 853 l 592 853 l 592 554 l 240 554 l 240 701 m 719 1028 l 336 1028 l 336 1147 l 719 1147 l 719 1028 z "},"Ą":{"ha":833,"x_min":111,"x_max":722,"o":"m 342 972 l 111 735 l 111 0 l 240 0 l 240 435 l 592 435 l 592 0 l 722 0 l 722 972 l 342 972 m 240 701 l 389 853 l 592 853 l 592 554 l 240 554 l 240 701 m 722 -168 l 583 -168 l 722 1 l 601 15 l 481 -117 l 481 -174 l 592 -267 l 722 -267 l 722 -168 z "},"Å":{"ha":833,"x_min":111,"x_max":722,"o":"m 342 972 l 111 735 l 111 0 l 240 0 l 240 435 l 592 435 l 592 0 l 722 0 l 722 972 l 342 972 m 240 701 l 389 853 l 592 853 l 592 554 l 240 554 l 240 701 m 463 1333 l 375 1244 l 375 1115 l 463 1028 l 590 1028 l 681 1115 l 681 1244 l 590 1333 l 463 1333 m 497 1251 l 557 1251 l 600 1210 l 600 1150 l 557 1110 l 497 1110 l 456 1150 l 456 1210 l 497 1251 z "},"Ã":{"ha":833,"x_min":111,"x_max":814,"o":"m 342 972 l 111 735 l 111 0 l 240 0 l 240 435 l 592 435 l 592 0 l 722 0 l 722 972 l 342 972 m 240 701 l 389 853 l 592 853 l 592 554 l 240 554 l 240 701 m 763 1206 l 650 1138 l 393 1206 l 242 1115 l 293 1028 l 411 1100 l 663 1028 l 814 1118 l 763 1206 z "},"Æ":{"ha":833,"x_min":-3,"x_max":836,"o":"m 229 982 l -3 743 l -3 0 l 128 0 l 128 457 l 407 457 l 407 0 l 836 0 l 836 119 l 538 119 l 538 457 l 751 457 l 751 576 l 538 576 l 538 863 l 836 863 l 836 982 l 229 982 m 128 707 l 278 863 l 407 863 l 407 576 l 128 576 l 128 707 z "},"B":{"ha":833,"x_min":110,"x_max":743,"o":"m 110 972 l 110 0 l 625 0 l 743 72 l 743 374 l 610 569 l 569 569 l 729 738 l 729 872 l 660 972 l 110 972 m 240 854 l 599 854 l 599 772 l 404 569 l 240 569 l 240 854 m 240 450 l 546 450 l 613 357 l 613 119 l 240 119 l 240 450 z "},"C":{"ha":833,"x_min":121,"x_max":740,"o":"m 239 972 l 639 972 l 738 824 l 653 735 l 575 853 l 289 853 l 251 813 l 251 193 l 301 119 l 585 119 l 674 207 l 740 108 l 638 0 l 238 0 l 121 174 l 121 851 l 239 972 z "},"Ć":{"ha":833,"x_min":121,"x_max":740,"o":"m 239 972 l 639 972 l 738 824 l 653 735 l 575 853 l 289 853 l 251 813 l 251 193 l 301 119 l 585 119 l 674 207 l 740 108 l 638 0 l 238 0 l 121 174 l 121 851 l 239 972 m 294 1024 l 579 1161 l 503 1268 l 244 1099 l 294 1024 z "},"Č":{"ha":833,"x_min":121,"x_max":740,"o":"m 239 972 l 639 972 l 738 824 l 653 735 l 575 853 l 289 853 l 251 813 l 251 193 l 301 119 l 585 119 l 674 207 l 740 108 l 638 0 l 238 0 l 121 174 l 121 851 l 239 972 m 451 1028 l 647 1176 l 582 1250 l 415 1147 l 251 1250 l 185 1176 l 383 1028 l 451 1028 z "},"Ç":{"ha":833,"x_min":121,"x_max":740,"o":"m 239 972 l 639 972 l 738 824 l 653 735 l 575 853 l 289 853 l 251 813 l 251 193 l 301 119 l 585 119 l 674 207 l 740 108 l 638 0 l 238 0 l 121 174 l 121 851 l 239 972 m 338 -158 l 476 -158 l 338 11 l 472 11 l 579 -107 l 579 -164 l 468 -256 l 338 -256 l 338 -158 z "},"Ċ":{"ha":833,"x_min":121,"x_max":740,"o":"m 239 972 l 639 972 l 738 824 l 653 735 l 575 853 l 289 853 l 251 813 l 251 193 l 301 119 l 585 119 l 674 207 l 740 108 l 638 0 l 238 0 l 121 174 l 121 851 l 239 972 m 338 1028 l 338 1186 l 496 1186 l 496 1028 l 338 1028 z "},"D":{"ha":833,"x_min":114,"x_max":749,"o":"m 114 972 l 557 972 l 749 686 l 749 121 l 632 0 l 114 0 l 114 972 m 244 853 l 244 118 l 578 118 l 617 158 l 617 667 l 492 853 l 244 853 z "},"Ð":{"ha":833,"x_min":-1,"x_max":749,"o":"m 114 972 l 557 972 l 749 686 l 749 121 l 632 0 l 114 0 l 114 972 m 244 853 l 244 118 l 578 118 l 617 158 l 617 667 l 492 853 l 244 853 m 360 413 l -1 413 l -1 532 l 360 532 l 360 413 z "},"Ď":{"ha":833,"x_min":114,"x_max":749,"o":"m 114 972 l 557 972 l 749 686 l 749 121 l 632 0 l 114 0 l 114 972 m 244 853 l 244 118 l 578 118 l 617 158 l 617 667 l 492 853 l 244 853 m 451 1028 l 647 1176 l 582 1250 l 415 1147 l 251 1250 l 185 1176 l 383 1028 l 451 1028 z "},"Đ":{"ha":833,"x_min":-1,"x_max":749,"o":"m 114 972 l 557 972 l 749 686 l 749 121 l 632 0 l 114 0 l 114 972 m 244 853 l 244 118 l 578 118 l 617 158 l 617 667 l 492 853 l 244 853 m 360 413 l -1 413 l -1 532 l 360 532 l 360 413 z "},"E":{"ha":833,"x_min":94,"x_max":728,"o":"m 213 972 l 94 851 l 94 174 l 210 0 l 728 0 l 728 119 l 274 119 l 225 193 l 225 450 l 546 450 l 546 569 l 225 569 l 225 814 l 261 853 l 728 853 l 728 972 l 213 972 z "},"É":{"ha":833,"x_min":94,"x_max":728,"o":"m 213 972 l 94 851 l 94 174 l 210 0 l 728 0 l 728 119 l 274 119 l 225 193 l 225 450 l 546 450 l 546 569 l 225 569 l 225 814 l 261 853 l 728 853 l 728 972 l 213 972 m 294 1024 l 579 1161 l 503 1268 l 244 1099 l 294 1024 z "},"Ě":{"ha":833,"x_min":94,"x_max":728,"o":"m 213 972 l 94 851 l 94 174 l 210 0 l 728 0 l 728 119 l 274 119 l 225 193 l 225 450 l 546 450 l 546 569 l 225 569 l 225 814 l 261 853 l 728 853 l 728 972 l 213 972 m 451 1028 l 647 1176 l 582 1250 l 415 1147 l 251 1250 l 185 1176 l 383 1028 l 451 1028 z "},"Ê":{"ha":833,"x_min":94,"x_max":728,"o":"m 213 972 l 94 851 l 94 174 l 210 0 l 728 0 l 728 119 l 274 119 l 225 193 l 225 450 l 546 450 l 546 569 l 225 569 l 225 814 l 261 853 l 728 853 l 728 972 l 213 972 m 451 1240 l 383 1240 l 185 1090 l 251 1018 l 415 1121 l 582 1018 l 647 1090 l 451 1240 z "},"Ë":{"ha":833,"x_min":94,"x_max":728,"o":"m 213 972 l 94 851 l 94 174 l 210 0 l 728 0 l 728 119 l 274 119 l 225 193 l 225 450 l 546 450 l 546 569 l 225 569 l 225 814 l 261 853 l 728 853 l 728 972 l 213 972 m 194 1026 l 194 1179 l 347 1179 l 347 1026 l 194 1026 m 486 1026 l 486 1179 l 639 1179 l 639 1026 l 486 1026 z "},"Ė":{"ha":833,"x_min":94,"x_max":728,"o":"m 213 972 l 94 851 l 94 174 l 210 0 l 728 0 l 728 119 l 274 119 l 225 193 l 225 450 l 546 450 l 546 569 l 225 569 l 225 814 l 261 853 l 728 853 l 728 972 l 213 972 m 338 1028 l 338 1186 l 496 1186 l 496 1028 l 338 1028 z "},"È":{"ha":833,"x_min":94,"x_max":728,"o":"m 213 972 l 94 851 l 94 174 l 210 0 l 728 0 l 728 119 l 274 119 l 225 193 l 225 450 l 546 450 l 546 569 l 225 569 l 225 814 l 261 853 l 728 853 l 728 972 l 213 972 m 539 1021 l 589 1096 l 331 1265 l 254 1158 l 539 1021 z "},"Ē":{"ha":833,"x_min":94,"x_max":728,"o":"m 213 972 l 94 851 l 94 174 l 210 0 l 728 0 l 728 119 l 274 119 l 225 193 l 225 450 l 546 450 l 546 569 l 225 569 l 225 814 l 261 853 l 728 853 l 728 972 l 213 972 m 608 1028 l 225 1028 l 225 1147 l 608 1147 l 608 1028 z "},"Ę":{"ha":833,"x_min":94,"x_max":728,"o":"m 213 972 l 94 851 l 94 174 l 210 0 l 728 0 l 728 119 l 274 119 l 225 193 l 225 450 l 546 450 l 546 569 l 225 569 l 225 814 l 261 853 l 728 853 l 728 972 l 213 972 m 482 -156 l 343 -156 l 482 14 l 361 28 l 240 -104 l 240 -161 l 351 -254 l 482 -254 l 482 -156 z "},"F":{"ha":833,"x_min":124,"x_max":739,"o":"m 265 972 l 124 828 l 124 0 l 254 0 l 254 450 l 567 450 l 567 569 l 254 569 l 254 790 l 315 853 l 739 853 l 739 972 l 265 972 z "},"G":{"ha":833,"x_min":92,"x_max":725,"o":"m 208 972 l 92 850 l 92 167 l 203 0 l 725 0 l 725 485 l 664 578 l 399 578 l 399 458 l 594 458 l 594 119 l 265 119 l 221 188 l 221 815 l 257 853 l 543 853 l 621 738 l 706 822 l 606 972 l 208 972 z "},"Ğ":{"ha":833,"x_min":92,"x_max":725,"o":"m 208 972 l 92 850 l 92 167 l 203 0 l 725 0 l 725 485 l 664 578 l 399 578 l 399 458 l 594 458 l 594 119 l 265 119 l 221 188 l 221 815 l 257 853 l 543 853 l 621 738 l 706 822 l 606 972 l 208 972 m 175 1174 l 175 1260 l 328 1260 l 328 1131 l 506 1131 l 506 1260 l 658 1260 l 658 1174 l 514 1028 l 319 1028 l 175 1174 z "},"Ģ":{"ha":833,"x_min":92,"x_max":725,"o":"m 208 972 l 92 850 l 92 167 l 203 0 l 725 0 l 725 485 l 664 578 l 399 578 l 399 458 l 594 458 l 594 119 l 265 119 l 221 188 l 221 815 l 257 853 l 543 853 l 621 738 l 706 822 l 606 972 l 208 972 m 350 -393 l 533 -136 l 418 -74 l 268 -344 l 350 -393 z "},"Ġ":{"ha":833,"x_min":92,"x_max":725,"o":"m 208 972 l 92 850 l 92 167 l 203 0 l 725 0 l 725 485 l 664 578 l 399 578 l 399 458 l 594 458 l 594 119 l 265 119 l 221 188 l 221 815 l 257 853 l 543 853 l 621 738 l 706 822 l 606 972 l 208 972 m 338 1028 l 338 1186 l 496 1186 l 496 1028 l 338 1028 z "},"H":{"ha":833,"x_min":99,"x_max":735,"o":"m 99 972 l 229 972 l 229 521 l 329 579 l 503 579 l 603 521 l 603 972 l 735 972 l 735 0 l 603 0 l 603 389 l 556 460 l 265 460 l 229 422 l 229 0 l 99 0 l 99 972 z "},"Ħ":{"ha":833,"x_min":0,"x_max":833,"o":"m 99 972 l 229 972 l 229 521 l 329 579 l 503 579 l 603 521 l 603 972 l 735 972 l 735 0 l 603 0 l 603 389 l 556 460 l 265 460 l 229 422 l 229 0 l 99 0 l 99 972 m 833 697 l 0 697 l 0 817 l 833 817 l 833 697 z "},"I":{"ha":833,"x_min":100,"x_max":733,"o":"m 100 972 l 100 853 l 351 853 l 351 119 l 100 119 l 100 0 l 733 0 l 733 119 l 482 119 l 482 853 l 733 853 l 733 972 l 100 972 z "},"Ĳ":{"ha":833,"x_min":25,"x_max":808,"o":"m 25 982 l 25 864 l 218 864 l 267 790 l 267 0 l 399 0 l 399 804 l 456 864 l 653 864 l 603 799 l 603 43 l 453 -115 l 267 -115 l 267 -235 l 504 -235 l 733 6 l 733 864 l 808 864 l 808 982 l 406 982 l 335 910 l 282 982 l 25 982 z "},"Í":{"ha":833,"x_min":100,"x_max":733,"o":"m 100 972 l 100 853 l 351 853 l 351 119 l 100 119 l 100 0 l 733 0 l 733 119 l 482 119 l 482 853 l 733 853 l 733 972 l 100 972 m 294 1057 l 579 1194 l 503 1301 l 244 1132 l 294 1057 z "},"Î":{"ha":833,"x_min":100,"x_max":733,"o":"m 100 972 l 100 853 l 351 853 l 351 119 l 100 119 l 100 0 l 733 0 l 733 119 l 482 119 l 482 853 l 733 853 l 733 972 l 100 972 m 451 1274 l 383 1274 l 185 1124 l 251 1051 l 415 1154 l 582 1051 l 647 1124 l 451 1274 z "},"Ï":{"ha":833,"x_min":100,"x_max":733,"o":"m 100 972 l 100 853 l 351 853 l 351 119 l 100 119 l 100 0 l 733 0 l 733 119 l 482 119 l 482 853 l 733 853 l 733 972 l 100 972 m 194 1060 l 194 1213 l 347 1213 l 347 1060 l 194 1060 m 486 1060 l 486 1213 l 639 1213 l 639 1060 l 486 1060 z "},"İ":{"ha":833,"x_min":100,"x_max":733,"o":"m 100 972 l 100 853 l 351 853 l 351 119 l 100 119 l 100 0 l 733 0 l 733 119 l 482 119 l 482 853 l 733 853 l 733 972 l 100 972 m 338 1061 l 338 1219 l 496 1219 l 496 1061 l 338 1061 z "},"Ì":{"ha":833,"x_min":100,"x_max":733,"o":"m 100 972 l 100 853 l 351 853 l 351 119 l 100 119 l 100 0 l 733 0 l 733 119 l 482 119 l 482 853 l 733 853 l 733 972 l 100 972 m 539 1054 l 589 1129 l 331 1299 l 254 1192 l 539 1054 z "},"Ī":{"ha":833,"x_min":100,"x_max":733,"o":"m 100 972 l 100 853 l 351 853 l 351 119 l 100 119 l 100 0 l 733 0 l 733 119 l 482 119 l 482 853 l 733 853 l 733 972 l 100 972 m 608 1061 l 225 1061 l 225 1181 l 608 1181 l 608 1061 z "},"Į":{"ha":833,"x_min":100,"x_max":733,"o":"m 100 972 l 100 853 l 351 853 l 351 119 l 100 119 l 100 0 l 733 0 l 733 119 l 482 119 l 482 853 l 733 853 l 733 972 l 100 972 m 482 -156 l 343 -156 l 482 14 l 361 28 l 240 -104 l 240 -161 l 351 -254 l 482 -254 l 482 -156 z "},"J":{"ha":833,"x_min":151,"x_max":682,"o":"m 151 972 l 151 853 l 553 853 l 553 178 l 403 18 l 263 18 l 263 -100 l 453 -100 l 682 140 l 682 972 l 151 972 z "},"K":{"ha":833,"x_min":42,"x_max":793,"o":"m 604 972 l 171 525 l 171 972 l 42 972 l 42 0 l 171 0 l 171 354 l 310 497 l 651 0 l 793 0 l 396 585 l 776 972 l 604 972 z "},"Ķ":{"ha":833,"x_min":42,"x_max":793,"o":"m 604 972 l 171 525 l 171 972 l 42 972 l 42 0 l 171 0 l 171 354 l 310 497 l 651 0 l 793 0 l 396 585 l 776 972 l 604 972 m 350 -393 l 533 -136 l 418 -74 l 268 -344 l 350 -393 z "},"L":{"ha":833,"x_min":99,"x_max":735,"o":"m 99 972 l 99 179 l 218 0 l 735 0 l 735 221 l 603 221 l 603 119 l 282 119 l 229 196 l 229 972 l 99 972 z "},"Ĺ":{"ha":833,"x_min":-7,"x_max":735,"o":"m 99 972 l 99 179 l 218 0 l 735 0 l 735 221 l 603 221 l 603 119 l 282 119 l 229 196 l 229 972 l 99 972 m 43 1038 l 328 1175 l 251 1282 l -7 1113 l 43 1038 z "},"Ľ":{"ha":833,"x_min":99,"x_max":735,"o":"m 99 972 l 99 179 l 218 0 l 735 0 l 735 221 l 603 221 l 603 119 l 282 119 l 229 196 l 229 972 l 99 972 m 488 1019 l 653 996 l 544 674 l 436 696 l 488 1019 z "},"Ļ":{"ha":833,"x_min":99,"x_max":735,"o":"m 99 972 l 99 179 l 218 0 l 735 0 l 735 221 l 603 221 l 603 119 l 282 119 l 229 196 l 229 972 l 99 972 m 350 -393 l 533 -136 l 418 -74 l 268 -344 l 350 -393 z "},"Ł":{"ha":833,"x_min":99,"x_max":735,"o":"m 99 972 l 99 179 l 218 0 l 735 0 l 735 221 l 603 221 l 603 119 l 282 119 l 229 196 l 229 972 l 99 972 m 517 894 l 178 -104 l 289 -142 l 628 857 l 517 894 z "},"M":{"ha":833,"x_min":100,"x_max":735,"o":"m 100 972 l 100 0 l 231 0 l 231 739 l 354 556 l 354 547 l 475 547 l 475 660 l 603 800 l 603 0 l 735 0 l 735 972 l 603 972 l 376 725 l 231 942 l 231 972 l 100 972 z "},"N":{"ha":833,"x_min":100,"x_max":735,"o":"m 603 972 l 603 565 l 333 972 l 100 972 l 100 0 l 231 0 l 231 844 l 271 844 l 603 349 l 603 0 l 735 0 l 735 972 l 603 972 z "},"Ń":{"ha":833,"x_min":100,"x_max":735,"o":"m 603 972 l 603 565 l 333 972 l 100 972 l 100 0 l 231 0 l 231 844 l 271 844 l 603 349 l 603 0 l 735 0 l 735 972 l 603 972 m 294 1024 l 579 1161 l 503 1268 l 244 1099 l 294 1024 z "},"Ň":{"ha":833,"x_min":100,"x_max":735,"o":"m 603 972 l 603 565 l 333 972 l 100 972 l 100 0 l 231 0 l 231 844 l 271 844 l 603 349 l 603 0 l 735 0 l 735 972 l 603 972 m 451 1028 l 647 1176 l 582 1250 l 415 1147 l 251 1250 l 185 1176 l 383 1028 l 451 1028 z "},"Ņ":{"ha":833,"x_min":100,"x_max":735,"o":"m 603 972 l 603 565 l 333 972 l 100 972 l 100 0 l 231 0 l 231 844 l 271 844 l 603 349 l 603 0 l 735 0 l 735 972 l 603 972 m 350 -393 l 533 -136 l 418 -74 l 268 -344 l 350 -393 z "},"Ñ":{"ha":833,"x_min":100,"x_max":735,"o":"m 603 972 l 603 565 l 333 972 l 100 972 l 100 0 l 231 0 l 231 844 l 271 844 l 603 349 l 603 0 l 735 0 l 735 972 l 603 972 m 651 1206 l 539 1138 l 282 1206 l 131 1115 l 182 1028 l 300 1100 l 551 1028 l 703 1118 l 651 1206 z "},"O":{"ha":833,"x_min":100,"x_max":733,"o":"m 218 972 l 619 972 l 733 799 l 733 121 l 618 0 l 217 0 l 100 174 l 100 851 l 218 972 m 229 193 l 279 119 l 567 119 l 603 158 l 603 779 l 554 853 l 267 853 l 229 814 l 229 193 z "},"Ó":{"ha":833,"x_min":100,"x_max":733,"o":"m 218 972 l 619 972 l 733 799 l 733 121 l 618 0 l 217 0 l 100 174 l 100 851 l 218 972 m 229 193 l 279 119 l 567 119 l 603 158 l 603 779 l 554 853 l 267 853 l 229 814 l 229 193 m 294 1024 l 579 1161 l 503 1268 l 244 1099 l 294 1024 z "},"Ô":{"ha":833,"x_min":100,"x_max":733,"o":"m 218 972 l 619 972 l 733 799 l 733 121 l 618 0 l 217 0 l 100 174 l 100 851 l 218 972 m 229 193 l 279 119 l 567 119 l 603 158 l 603 779 l 554 853 l 267 853 l 229 814 l 229 193 m 451 1240 l 383 1240 l 185 1090 l 251 1018 l 415 1121 l 582 1018 l 647 1090 l 451 1240 z "},"Ö":{"ha":833,"x_min":100,"x_max":733,"o":"m 218 972 l 619 972 l 733 799 l 733 121 l 618 0 l 217 0 l 100 174 l 100 851 l 218 972 m 229 193 l 279 119 l 567 119 l 603 158 l 603 779 l 554 853 l 267 853 l 229 814 l 229 193 m 194 1026 l 194 1179 l 347 1179 l 347 1026 l 194 1026 m 486 1026 l 486 1179 l 639 1179 l 639 1026 l 486 1026 z "},"Ò":{"ha":833,"x_min":100,"x_max":733,"o":"m 218 972 l 619 972 l 733 799 l 733 121 l 618 0 l 217 0 l 100 174 l 100 851 l 218 972 m 229 193 l 279 119 l 567 119 l 603 158 l 603 779 l 554 853 l 267 853 l 229 814 l 229 193 m 539 1021 l 589 1096 l 331 1265 l 254 1158 l 539 1021 z "},"Ő":{"ha":833,"x_min":100,"x_max":754,"o":"m 218 972 l 619 972 l 733 799 l 733 121 l 618 0 l 217 0 l 100 174 l 100 851 l 218 972 m 229 193 l 279 119 l 567 119 l 603 158 l 603 779 l 554 853 l 267 853 l 229 814 l 229 193 m 324 1019 l 515 1271 l 396 1336 l 243 1067 l 324 1019 m 536 1019 l 754 1249 l 643 1326 l 460 1076 l 536 1019 z "},"Ø":{"ha":833,"x_min":100,"x_max":733,"o":"m 218 972 l 619 972 l 733 799 l 733 121 l 618 0 l 217 0 l 100 174 l 100 851 l 218 972 m 229 193 l 279 119 l 567 119 l 603 158 l 603 779 l 554 853 l 267 853 l 229 814 l 229 193 m 583 1090 l 694 1053 l 288 -144 l 176 -107 l 583 1090 z "},"Õ":{"ha":833,"x_min":100,"x_max":733,"o":"m 218 972 l 619 972 l 733 799 l 733 121 l 618 0 l 217 0 l 100 174 l 100 851 l 218 972 m 229 193 l 279 119 l 567 119 l 603 158 l 603 779 l 554 853 l 267 853 l 229 814 l 229 193 m 651 1206 l 539 1138 l 282 1206 l 131 1115 l 182 1028 l 300 1100 l 551 1028 l 703 1118 l 651 1206 z "},"Œ":{"ha":833,"x_min":-3,"x_max":836,"o":"m 128 822 l 165 863 l 358 863 l 407 789 l 407 158 l 371 119 l 176 119 l 128 193 l 128 822 m 538 458 l 751 458 l 751 579 l 538 579 l 538 808 l 501 863 l 836 863 l 836 982 l 115 982 l -3 861 l -3 174 l 115 0 l 836 0 l 836 119 l 521 119 l 538 138 l 538 458 z "},"P":{"ha":833,"x_min":100,"x_max":733,"o":"m 100 972 l 100 0 l 231 0 l 231 449 l 617 449 l 733 567 l 733 799 l 618 972 l 100 972 m 231 853 l 554 853 l 603 778 l 603 604 l 565 567 l 332 567 l 231 507 l 231 853 z "},"Þ":{"ha":833,"x_min":100,"x_max":733,"o":"m 100 1035 l 100 0 l 231 0 l 231 196 l 332 138 l 615 138 l 733 260 l 733 696 l 615 871 l 329 871 l 231 811 l 231 1035 l 100 1035 m 231 711 l 269 750 l 553 750 l 603 676 l 603 294 l 567 256 l 231 256 l 231 711 z "},"Q":{"ha":833,"x_min":100,"x_max":733,"o":"m 219 972 l 100 850 l 100 172 l 218 0 l 575 0 l 618 -60 l 715 7 l 543 264 l 444 197 l 497 119 l 281 119 l 231 193 l 231 815 l 267 853 l 553 853 l 601 781 l 601 183 l 733 318 l 733 799 l 615 972 l 219 972 z "},"R":{"ha":833,"x_min":99,"x_max":735,"o":"m 99 972 l 99 0 l 229 0 l 229 508 l 326 449 l 468 449 l 603 250 l 603 0 l 735 0 l 735 268 l 600 464 l 735 601 l 735 747 l 581 972 l 99 972 m 229 853 l 515 853 l 603 726 l 603 633 l 538 568 l 229 568 l 229 853 z "},"Ŕ":{"ha":833,"x_min":99,"x_max":735,"o":"m 99 972 l 99 0 l 229 0 l 229 508 l 326 449 l 468 449 l 603 250 l 603 0 l 735 0 l 735 268 l 600 464 l 735 601 l 735 747 l 581 972 l 99 972 m 229 853 l 515 853 l 603 726 l 603 633 l 538 568 l 229 568 l 229 853 m 294 1024 l 579 1161 l 503 1268 l 244 1099 l 294 1024 z "},"Ř":{"ha":833,"x_min":99,"x_max":735,"o":"m 99 972 l 99 0 l 229 0 l 229 508 l 326 449 l 468 449 l 603 250 l 603 0 l 735 0 l 735 268 l 600 464 l 735 601 l 735 747 l 581 972 l 99 972 m 229 853 l 515 853 l 603 726 l 603 633 l 538 568 l 229 568 l 229 853 m 451 1028 l 647 1176 l 582 1250 l 415 1147 l 251 1250 l 185 1176 l 383 1028 l 451 1028 z "},"S":{"ha":833,"x_min":99,"x_max":735,"o":"m 218 972 l 619 972 l 700 849 l 615 765 l 556 853 l 268 853 l 232 815 l 232 642 l 282 567 l 632 567 l 735 413 l 735 107 l 632 0 l 167 0 l 99 96 l 182 183 l 228 119 l 578 119 l 604 143 l 604 396 l 568 449 l 217 449 l 101 621 l 101 851 l 218 972 z "},"Ś":{"ha":833,"x_min":99,"x_max":735,"o":"m 218 972 l 619 972 l 700 849 l 615 765 l 556 853 l 268 853 l 232 815 l 232 642 l 282 567 l 632 567 l 735 413 l 735 107 l 632 0 l 167 0 l 99 96 l 182 183 l 228 119 l 578 119 l 604 143 l 604 396 l 568 449 l 217 449 l 101 621 l 101 851 l 218 972 m 294 1024 l 579 1161 l 503 1268 l 244 1099 l 294 1024 z "},"Š":{"ha":833,"x_min":99,"x_max":735,"o":"m 218 972 l 619 972 l 700 849 l 615 765 l 556 853 l 268 853 l 232 815 l 232 642 l 282 567 l 632 567 l 735 413 l 735 107 l 632 0 l 167 0 l 99 96 l 182 183 l 228 119 l 578 119 l 604 143 l 604 396 l 568 449 l 217 449 l 101 621 l 101 851 l 218 972 m 451 1028 l 647 1176 l 582 1250 l 415 1147 l 251 1250 l 185 1176 l 383 1028 l 451 1028 z "},"Ş":{"ha":833,"x_min":99,"x_max":735,"o":"m 218 972 l 619 972 l 700 849 l 615 765 l 556 853 l 268 853 l 232 815 l 232 642 l 282 567 l 632 567 l 735 413 l 735 107 l 632 0 l 167 0 l 99 96 l 182 183 l 228 119 l 578 119 l 604 143 l 604 396 l 568 449 l 217 449 l 101 621 l 101 851 l 218 972 m 338 -158 l 476 -158 l 338 11 l 472 11 l 579 -107 l 579 -164 l 468 -256 l 338 -256 l 338 -158 z "},"Ș":{"ha":833,"x_min":99,"x_max":735,"o":"m 218 972 l 619 972 l 700 849 l 615 765 l 556 853 l 268 853 l 232 815 l 232 642 l 282 567 l 632 567 l 735 413 l 735 107 l 632 0 l 167 0 l 99 96 l 182 183 l 228 119 l 578 119 l 604 143 l 604 396 l 568 449 l 217 449 l 101 621 l 101 851 l 218 972 m 350 -393 l 533 -136 l 418 -74 l 268 -344 l 350 -393 z "},"ẞ":{"ha":833,"x_min":99,"x_max":735,"o":"m 328 992 l 99 754 l 99 0 l 231 0 l 231 717 l 379 872 l 578 872 l 308 594 l 308 468 l 515 468 l 603 339 l 603 164 l 560 119 l 396 119 l 396 0 l 610 0 l 733 126 l 733 357 l 578 588 l 471 588 l 735 863 l 735 992 l 328 992 z "},"T":{"ha":833,"x_min":54,"x_max":779,"o":"m 54 972 l 779 972 l 779 853 l 381 853 l 483 782 l 483 0 l 351 0 l 351 760 l 303 853 l 54 853 l 54 972 z "},"Ť":{"ha":833,"x_min":54,"x_max":779,"o":"m 54 972 l 779 972 l 779 853 l 381 853 l 483 782 l 483 0 l 351 0 l 351 760 l 303 853 l 54 853 l 54 972 m 451 1028 l 647 1176 l 582 1250 l 415 1147 l 251 1250 l 185 1176 l 383 1028 l 451 1028 z "},"Ț":{"ha":833,"x_min":54,"x_max":779,"o":"m 54 972 l 779 972 l 779 853 l 381 853 l 483 782 l 483 0 l 351 0 l 351 760 l 303 853 l 54 853 l 54 972 m 350 -393 l 533 -136 l 418 -74 l 268 -344 l 350 -393 z "},"U":{"ha":833,"x_min":99,"x_max":735,"o":"m 603 972 l 603 158 l 564 119 l 279 119 l 229 193 l 229 972 l 99 972 l 99 174 l 217 0 l 504 0 l 603 61 l 603 0 l 735 0 l 735 972 l 603 972 z "},"Ú":{"ha":833,"x_min":99,"x_max":735,"o":"m 603 972 l 603 158 l 564 119 l 279 119 l 229 193 l 229 972 l 99 972 l 99 174 l 217 0 l 504 0 l 603 61 l 603 0 l 735 0 l 735 972 l 603 972 m 294 1024 l 579 1161 l 503 1268 l 244 1099 l 294 1024 z "},"Û":{"ha":833,"x_min":99,"x_max":735,"o":"m 603 972 l 603 158 l 564 119 l 279 119 l 229 193 l 229 972 l 99 972 l 99 174 l 217 0 l 504 0 l 603 61 l 603 0 l 735 0 l 735 972 l 603 972 m 451 1240 l 383 1240 l 185 1090 l 251 1018 l 415 1121 l 582 1018 l 647 1090 l 451 1240 z "},"Ü":{"ha":833,"x_min":99,"x_max":735,"o":"m 603 972 l 603 158 l 564 119 l 279 119 l 229 193 l 229 972 l 99 972 l 99 174 l 217 0 l 504 0 l 603 61 l 603 0 l 735 0 l 735 972 l 603 972 m 194 1026 l 194 1179 l 347 1179 l 347 1026 l 194 1026 m 486 1026 l 486 1179 l 639 1179 l 639 1026 l 486 1026 z "},"Ù":{"ha":833,"x_min":99,"x_max":735,"o":"m 603 972 l 603 158 l 564 119 l 279 119 l 229 193 l 229 972 l 99 972 l 99 174 l 217 0 l 504 0 l 603 61 l 603 0 l 735 0 l 735 972 l 603 972 m 539 1021 l 589 1096 l 331 1265 l 254 1158 l 539 1021 z "},"Ű":{"ha":833,"x_min":99,"x_max":754,"o":"m 603 972 l 603 158 l 564 119 l 279 119 l 229 193 l 229 972 l 99 972 l 99 174 l 217 0 l 504 0 l 603 61 l 603 0 l 735 0 l 735 972 l 603 972 m 324 1019 l 515 1271 l 396 1336 l 243 1067 l 324 1019 m 536 1019 l 754 1249 l 643 1326 l 460 1076 l 536 1019 z "},"Ū":{"ha":833,"x_min":99,"x_max":735,"o":"m 603 972 l 603 158 l 564 119 l 279 119 l 229 193 l 229 972 l 99 972 l 99 174 l 217 0 l 504 0 l 603 61 l 603 0 l 735 0 l 735 972 l 603 972 m 608 1028 l 225 1028 l 225 1147 l 608 1147 l 608 1028 z "},"Ų":{"ha":833,"x_min":99,"x_max":735,"o":"m 603 972 l 603 158 l 564 119 l 279 119 l 229 193 l 229 972 l 99 972 l 99 174 l 217 0 l 504 0 l 603 61 l 603 0 l 735 0 l 735 972 l 603 972 m 735 -169 l 596 -169 l 735 0 l 614 14 l 493 -118 l 493 -175 l 604 -268 l 735 -268 l 735 -169 z "},"Ů":{"ha":833,"x_min":99,"x_max":735,"o":"m 603 972 l 603 158 l 564 119 l 279 119 l 229 193 l 229 972 l 99 972 l 99 174 l 217 0 l 504 0 l 603 61 l 603 0 l 735 0 l 735 972 l 603 972 m 351 1333 l 264 1244 l 264 1115 l 351 1028 l 479 1028 l 569 1115 l 569 1244 l 479 1333 l 351 1333 m 386 1251 l 446 1251 l 489 1210 l 489 1150 l 446 1110 l 386 1110 l 344 1150 l 344 1210 l 386 1251 z "},"V":{"ha":833,"x_min":100,"x_max":733,"o":"m 603 972 l 603 356 l 379 124 l 231 347 l 231 972 l 100 972 l 100 326 l 321 0 l 426 0 l 733 319 l 733 972 l 603 972 z "},"W":{"ha":833,"x_min":71,"x_max":761,"o":"m 71 972 l 71 193 l 201 0 l 321 0 l 426 111 l 499 0 l 625 0 l 761 139 l 761 972 l 629 972 l 629 181 l 585 132 l 561 132 l 482 251 l 482 581 l 350 581 l 350 211 l 275 132 l 249 132 l 201 208 l 201 972 l 71 972 z "},"Ẃ":{"ha":833,"x_min":71,"x_max":761,"o":"m 71 972 l 71 193 l 201 0 l 321 0 l 426 111 l 499 0 l 625 0 l 761 139 l 761 972 l 629 972 l 629 181 l 585 132 l 561 132 l 482 251 l 482 581 l 350 581 l 350 211 l 275 132 l 249 132 l 201 208 l 201 972 l 71 972 m 294 1024 l 579 1161 l 503 1268 l 244 1099 l 294 1024 z "},"Ŵ":{"ha":833,"x_min":71,"x_max":761,"o":"m 71 972 l 71 193 l 201 0 l 321 0 l 426 111 l 499 0 l 625 0 l 761 139 l 761 972 l 629 972 l 629 181 l 585 132 l 561 132 l 482 251 l 482 581 l 350 581 l 350 211 l 275 132 l 249 132 l 201 208 l 201 972 l 71 972 m 451 1240 l 383 1240 l 185 1090 l 251 1018 l 415 1121 l 582 1018 l 647 1090 l 451 1240 z "},"Ẅ":{"ha":833,"x_min":71,"x_max":761,"o":"m 71 972 l 71 193 l 201 0 l 321 0 l 426 111 l 499 0 l 625 0 l 761 139 l 761 972 l 629 972 l 629 181 l 585 132 l 561 132 l 482 251 l 482 581 l 350 581 l 350 211 l 275 132 l 249 132 l 201 208 l 201 972 l 71 972 m 194 1026 l 194 1179 l 347 1179 l 347 1026 l 194 1026 m 486 1026 l 486 1179 l 639 1179 l 639 1026 l 486 1026 z "},"Ẁ":{"ha":833,"x_min":71,"x_max":761,"o":"m 71 972 l 71 193 l 201 0 l 321 0 l 426 111 l 499 0 l 625 0 l 761 139 l 761 972 l 629 972 l 629 181 l 585 132 l 561 132 l 482 251 l 482 581 l 350 581 l 350 211 l 275 132 l 249 132 l 201 208 l 201 972 l 71 972 m 539 1021 l 589 1096 l 331 1265 l 254 1158 l 539 1021 z "},"X":{"ha":833,"x_min":108,"x_max":725,"o":"m 594 972 l 594 735 l 438 571 l 315 571 l 239 685 l 239 972 l 108 972 l 108 665 l 246 464 l 108 325 l 108 0 l 239 0 l 239 286 l 396 450 l 515 450 l 594 339 l 594 0 l 725 0 l 725 360 l 588 560 l 725 700 l 725 972 l 594 972 z "},"Y":{"ha":833,"x_min":99,"x_max":733,"o":"m 601 972 l 733 972 l 733 731 l 481 471 l 481 0 l 350 0 l 350 458 l 99 832 l 99 972 l 229 972 l 229 850 l 414 575 l 417 575 l 601 768 l 601 972 z "},"Ý":{"ha":833,"x_min":99,"x_max":733,"o":"m 601 972 l 733 972 l 733 731 l 481 471 l 481 0 l 350 0 l 350 458 l 99 832 l 99 972 l 229 972 l 229 850 l 414 575 l 417 575 l 601 768 l 601 972 m 294 1024 l 579 1161 l 503 1268 l 244 1099 l 294 1024 z "},"Ŷ":{"ha":833,"x_min":99,"x_max":733,"o":"m 601 972 l 733 972 l 733 731 l 481 471 l 481 0 l 350 0 l 350 458 l 99 832 l 99 972 l 229 972 l 229 850 l 414 575 l 417 575 l 601 768 l 601 972 m 451 1240 l 383 1240 l 185 1090 l 251 1018 l 415 1121 l 582 1018 l 647 1090 l 451 1240 z "},"Ÿ":{"ha":833,"x_min":99,"x_max":733,"o":"m 601 972 l 733 972 l 733 731 l 481 471 l 481 0 l 350 0 l 350 458 l 99 832 l 99 972 l 229 972 l 229 850 l 414 575 l 417 575 l 601 768 l 601 972 m 194 1026 l 194 1179 l 347 1179 l 347 1026 l 194 1026 m 486 1026 l 486 1179 l 639 1179 l 639 1026 l 486 1026 z "},"Ỳ":{"ha":833,"x_min":99,"x_max":733,"o":"m 601 972 l 733 972 l 733 731 l 481 471 l 481 0 l 350 0 l 350 458 l 99 832 l 99 972 l 229 972 l 229 850 l 414 575 l 417 575 l 601 768 l 601 972 m 539 1021 l 589 1096 l 331 1265 l 254 1158 l 539 1021 z "},"Z":{"ha":833,"x_min":99,"x_max":735,"o":"m 99 972 l 99 853 l 603 853 l 603 746 l 478 613 l 531 579 l 294 579 l 294 460 l 326 460 l 99 224 l 99 0 l 735 0 l 735 119 l 229 119 l 229 189 l 461 429 l 411 460 l 632 460 l 632 579 l 610 579 l 735 708 l 735 972 l 99 972 z "},"Ź":{"ha":833,"x_min":99,"x_max":735,"o":"m 99 972 l 99 853 l 603 853 l 603 746 l 478 613 l 531 579 l 294 579 l 294 460 l 326 460 l 99 224 l 99 0 l 735 0 l 735 119 l 229 119 l 229 189 l 461 429 l 411 460 l 632 460 l 632 579 l 610 579 l 735 708 l 735 972 l 99 972 m 294 1024 l 579 1161 l 503 1268 l 244 1099 l 294 1024 z "},"Ž":{"ha":833,"x_min":99,"x_max":735,"o":"m 99 972 l 99 853 l 603 853 l 603 746 l 478 613 l 531 579 l 294 579 l 294 460 l 326 460 l 99 224 l 99 0 l 735 0 l 735 119 l 229 119 l 229 189 l 461 429 l 411 460 l 632 460 l 632 579 l 610 579 l 735 708 l 735 972 l 99 972 m 451 1028 l 647 1176 l 582 1250 l 415 1147 l 251 1250 l 185 1176 l 383 1028 l 451 1028 z "},"Ż":{"ha":833,"x_min":99,"x_max":735,"o":"m 99 972 l 99 853 l 603 853 l 603 746 l 478 613 l 531 579 l 294 579 l 294 460 l 326 460 l 99 224 l 99 0 l 735 0 l 735 119 l 229 119 l 229 189 l 461 429 l 411 460 l 632 460 l 632 579 l 610 579 l 735 708 l 735 972 l 99 972 m 338 1028 l 338 1186 l 496 1186 l 496 1028 l 338 1028 z "},"a":{"ha":833,"x_min":90,"x_max":742,"o":"m 206 768 l 206 649 l 608 649 l 608 467 l 310 467 l 90 239 l 90 178 l 210 0 l 504 0 l 608 63 l 608 0 l 742 0 l 742 635 l 651 768 l 206 768 m 226 197 l 226 206 l 361 344 l 606 344 l 606 122 l 271 122 l 226 197 z "},"á":{"ha":833,"x_min":90,"x_max":742,"o":"m 206 768 l 206 649 l 608 649 l 608 467 l 310 467 l 90 239 l 90 178 l 210 0 l 504 0 l 608 63 l 608 0 l 742 0 l 742 635 l 651 768 l 206 768 m 226 197 l 226 206 l 361 344 l 606 344 l 606 122 l 271 122 l 226 197 m 318 838 l 603 975 l 526 1082 l 268 913 l 318 838 z "},"ă":{"ha":833,"x_min":90,"x_max":742,"o":"m 206 768 l 206 649 l 608 649 l 608 467 l 310 467 l 90 239 l 90 178 l 210 0 l 504 0 l 608 63 l 608 0 l 742 0 l 742 635 l 651 768 l 206 768 m 226 197 l 226 206 l 361 344 l 606 344 l 606 122 l 271 122 l 226 197 m 199 988 l 199 1074 l 351 1074 l 351 944 l 529 944 l 529 1074 l 682 1074 l 682 988 l 538 842 l 343 842 l 199 988 z "},"â":{"ha":833,"x_min":90,"x_max":742,"o":"m 206 768 l 206 649 l 608 649 l 608 467 l 310 467 l 90 239 l 90 178 l 210 0 l 504 0 l 608 63 l 608 0 l 742 0 l 742 635 l 651 768 l 206 768 m 226 197 l 226 206 l 361 344 l 606 344 l 606 122 l 271 122 l 226 197 m 475 1056 l 407 1056 l 208 906 l 275 833 l 439 936 l 606 833 l 671 906 l 475 1056 z "},"ä":{"ha":833,"x_min":90,"x_max":742,"o":"m 206 768 l 206 649 l 608 649 l 608 467 l 310 467 l 90 239 l 90 178 l 210 0 l 504 0 l 608 63 l 608 0 l 742 0 l 742 635 l 651 768 l 206 768 m 226 197 l 226 206 l 361 344 l 606 344 l 606 122 l 271 122 l 226 197 m 218 842 l 218 994 l 371 994 l 371 842 l 218 842 m 510 842 l 510 994 l 663 994 l 663 842 l 510 842 z "},"à":{"ha":833,"x_min":90,"x_max":742,"o":"m 206 768 l 206 649 l 608 649 l 608 467 l 310 467 l 90 239 l 90 178 l 210 0 l 504 0 l 608 63 l 608 0 l 742 0 l 742 635 l 651 768 l 206 768 m 226 197 l 226 206 l 361 344 l 606 344 l 606 122 l 271 122 l 226 197 m 563 835 l 613 910 l 354 1079 l 278 972 l 563 835 z "},"ā":{"ha":833,"x_min":90,"x_max":742,"o":"m 206 768 l 206 649 l 608 649 l 608 467 l 310 467 l 90 239 l 90 178 l 210 0 l 504 0 l 608 63 l 608 0 l 742 0 l 742 635 l 651 768 l 206 768 m 226 197 l 226 206 l 361 344 l 606 344 l 606 122 l 271 122 l 226 197 m 632 842 l 249 842 l 249 961 l 632 961 l 632 842 z "},"ą":{"ha":833,"x_min":90,"x_max":742,"o":"m 206 768 l 206 649 l 608 649 l 608 467 l 310 467 l 90 239 l 90 178 l 210 0 l 504 0 l 608 63 l 608 0 l 742 0 l 742 635 l 651 768 l 206 768 m 226 197 l 226 206 l 361 344 l 606 344 l 606 122 l 271 122 l 226 197 m 742 -169 l 603 -169 l 742 0 l 621 14 l 500 -118 l 500 -175 l 611 -268 l 742 -268 l 742 -169 z "},"å":{"ha":833,"x_min":90,"x_max":742,"o":"m 206 768 l 206 649 l 608 649 l 608 467 l 310 467 l 90 239 l 90 178 l 210 0 l 504 0 l 608 63 l 608 0 l 742 0 l 742 635 l 651 768 l 206 768 m 226 197 l 226 206 l 361 344 l 606 344 l 606 122 l 271 122 l 226 197 m 375 1147 l 288 1058 l 288 929 l 375 842 l 503 842 l 593 929 l 593 1058 l 503 1147 l 375 1147 m 410 1065 l 469 1065 l 513 1024 l 513 964 l 469 924 l 410 924 l 368 964 l 368 1024 l 410 1065 z "},"ã":{"ha":833,"x_min":90,"x_max":742,"o":"m 206 768 l 206 649 l 608 649 l 608 467 l 310 467 l 90 239 l 90 178 l 210 0 l 504 0 l 608 63 l 608 0 l 742 0 l 742 635 l 651 768 l 206 768 m 226 197 l 226 206 l 361 344 l 606 344 l 606 122 l 271 122 l 226 197 m 675 1019 l 563 951 l 306 1019 l 154 929 l 206 842 l 324 914 l 575 842 l 726 932 l 675 1019 z "},"æ":{"ha":833,"x_min":-4,"x_max":838,"o":"m 108 756 l 108 638 l 356 638 l 356 454 l 210 454 l -4 233 l -4 174 l 113 0 l 365 0 l 408 86 l 467 0 l 717 0 l 822 108 l 753 208 l 667 119 l 532 119 l 483 193 l 483 335 l 600 335 l 838 581 l 718 756 l 467 756 l 424 710 l 393 756 l 108 756 m 483 599 l 521 638 l 654 638 l 685 594 l 551 454 l 483 454 l 483 599 m 126 193 l 126 201 l 261 335 l 356 335 l 356 179 l 318 119 l 174 119 l 126 193 z "},"b":{"ha":833,"x_min":101,"x_max":736,"o":"m 101 1049 l 101 0 l 231 0 l 231 60 l 333 0 l 617 0 l 736 122 l 736 572 l 618 749 l 329 749 l 231 688 l 231 1049 l 101 1049 m 231 588 l 269 628 l 556 628 l 606 554 l 606 158 l 568 119 l 231 119 l 231 588 z "},"c":{"ha":833,"x_min":104,"x_max":722,"o":"m 219 747 l 618 747 l 722 593 l 639 506 l 557 628 l 272 628 l 233 588 l 233 189 l 285 114 l 568 114 l 654 203 l 719 106 l 618 0 l 219 0 l 104 172 l 104 628 l 219 747 z "},"ć":{"ha":833,"x_min":104,"x_max":722,"o":"m 219 747 l 618 747 l 722 593 l 639 506 l 557 628 l 272 628 l 233 588 l 233 189 l 285 114 l 568 114 l 654 203 l 719 106 l 618 0 l 219 0 l 104 172 l 104 628 l 219 747 m 294 856 l 579 993 l 503 1100 l 244 931 l 294 856 z "},"č":{"ha":833,"x_min":104,"x_max":722,"o":"m 219 747 l 618 747 l 722 593 l 639 506 l 557 628 l 272 628 l 233 588 l 233 189 l 285 114 l 568 114 l 654 203 l 719 106 l 618 0 l 219 0 l 104 172 l 104 628 l 219 747 m 451 860 l 647 1008 l 582 1082 l 415 979 l 251 1082 l 185 1008 l 383 860 l 451 860 z "},"ç":{"ha":833,"x_min":104,"x_max":722,"o":"m 219 747 l 618 747 l 722 593 l 639 506 l 557 628 l 272 628 l 233 588 l 233 189 l 285 114 l 568 114 l 654 203 l 719 106 l 618 0 l 219 0 l 104 172 l 104 628 l 219 747 m 338 -158 l 476 -158 l 338 11 l 472 11 l 579 -107 l 579 -164 l 468 -256 l 338 -256 l 338 -158 z "},"ċ":{"ha":833,"x_min":104,"x_max":722,"o":"m 219 747 l 618 747 l 722 593 l 639 506 l 557 628 l 272 628 l 233 588 l 233 189 l 285 114 l 568 114 l 654 203 l 719 106 l 618 0 l 219 0 l 104 172 l 104 628 l 219 747 m 338 860 l 338 1018 l 496 1018 l 496 860 l 338 860 z "},"d":{"ha":833,"x_min":104,"x_max":738,"o":"m 607 1049 l 738 1049 l 738 0 l 607 0 l 607 60 l 507 0 l 224 0 l 104 175 l 104 625 l 221 749 l 507 749 l 607 689 l 607 1049 m 235 193 l 283 119 l 571 119 l 607 156 l 607 556 l 558 628 l 272 628 l 235 589 l 235 193 z "},"ð":{"ha":833,"x_min":90,"x_max":743,"o":"m 222 1021 l 185 911 l 333 861 l 246 774 l 332 690 l 440 797 l 561 672 l 592 556 l 422 651 l 189 563 l 90 299 l 189 36 l 424 -65 l 657 36 l 743 294 l 743 442 l 665 728 l 519 881 l 603 968 l 517 1051 l 419 953 l 222 1021 m 281 124 l 214 299 l 283 482 l 414 531 l 621 414 l 625 315 l 561 124 l 424 61 l 281 124 z "},"ď":{"ha":833,"x_min":104,"x_max":1026,"o":"m 607 1049 l 738 1049 l 738 0 l 607 0 l 607 60 l 507 0 l 224 0 l 104 175 l 104 625 l 221 749 l 507 749 l 607 689 l 607 1049 m 235 193 l 283 119 l 571 119 l 607 156 l 607 556 l 558 628 l 272 628 l 235 589 l 235 193 m 861 1125 l 1026 1101 l 918 779 l 810 801 l 861 1125 z "},"đ":{"ha":833,"x_min":104,"x_max":836,"o":"m 607 1049 l 738 1049 l 738 0 l 607 0 l 607 60 l 507 0 l 224 0 l 104 175 l 104 625 l 221 749 l 507 749 l 607 689 l 607 1049 m 235 193 l 283 119 l 571 119 l 607 156 l 607 556 l 558 628 l 272 628 l 235 589 l 235 193 m 836 835 l 475 835 l 475 954 l 836 954 l 836 835 z "},"e":{"ha":833,"x_min":101,"x_max":732,"o":"m 217 747 l 101 628 l 101 171 l 217 0 l 613 0 l 715 106 l 643 197 l 565 121 l 281 121 l 229 196 l 229 333 l 497 333 l 732 575 l 613 747 l 217 747 m 229 586 l 269 628 l 546 628 l 576 581 l 449 446 l 229 446 l 229 586 z "},"é":{"ha":833,"x_min":101,"x_max":732,"o":"m 217 747 l 101 628 l 101 171 l 217 0 l 613 0 l 715 106 l 643 197 l 565 121 l 281 121 l 229 196 l 229 333 l 497 333 l 732 575 l 613 747 l 217 747 m 229 586 l 269 628 l 546 628 l 576 581 l 449 446 l 229 446 l 229 586 m 292 838 l 576 975 l 500 1082 l 242 913 l 292 838 z "},"ě":{"ha":833,"x_min":101,"x_max":732,"o":"m 217 747 l 101 628 l 101 171 l 217 0 l 613 0 l 715 106 l 643 197 l 565 121 l 281 121 l 229 196 l 229 333 l 497 333 l 732 575 l 613 747 l 217 747 m 229 586 l 269 628 l 546 628 l 576 581 l 449 446 l 229 446 l 229 586 m 449 842 l 644 990 l 579 1064 l 413 961 l 249 1064 l 182 990 l 381 842 l 449 842 z "},"ê":{"ha":833,"x_min":101,"x_max":732,"o":"m 217 747 l 101 628 l 101 171 l 217 0 l 613 0 l 715 106 l 643 197 l 565 121 l 281 121 l 229 196 l 229 333 l 497 333 l 732 575 l 613 747 l 217 747 m 229 586 l 269 628 l 546 628 l 576 581 l 449 446 l 229 446 l 229 586 m 449 1056 l 381 1056 l 182 906 l 249 833 l 413 936 l 579 833 l 644 906 l 449 1056 z "},"ë":{"ha":833,"x_min":101,"x_max":732,"o":"m 217 747 l 101 628 l 101 171 l 217 0 l 613 0 l 715 106 l 643 197 l 565 121 l 281 121 l 229 196 l 229 333 l 497 333 l 732 575 l 613 747 l 217 747 m 229 586 l 269 628 l 546 628 l 576 581 l 449 446 l 229 446 l 229 586 m 192 842 l 192 994 l 344 994 l 344 842 l 192 842 m 483 842 l 483 994 l 636 994 l 636 842 l 483 842 z "},"ė":{"ha":833,"x_min":101,"x_max":732,"o":"m 217 747 l 101 628 l 101 171 l 217 0 l 613 0 l 715 106 l 643 197 l 565 121 l 281 121 l 229 196 l 229 333 l 497 333 l 732 575 l 613 747 l 217 747 m 229 586 l 269 628 l 546 628 l 576 581 l 449 446 l 229 446 l 229 586 m 335 843 l 335 1001 l 493 1001 l 493 843 l 335 843 z "},"è":{"ha":833,"x_min":101,"x_max":732,"o":"m 217 747 l 101 628 l 101 171 l 217 0 l 613 0 l 715 106 l 643 197 l 565 121 l 281 121 l 229 196 l 229 333 l 497 333 l 732 575 l 613 747 l 217 747 m 229 586 l 269 628 l 546 628 l 576 581 l 449 446 l 229 446 l 229 586 m 536 835 l 586 910 l 328 1079 l 251 972 l 536 835 z "},"ē":{"ha":833,"x_min":101,"x_max":732,"o":"m 217 747 l 101 628 l 101 171 l 217 0 l 613 0 l 715 106 l 643 197 l 565 121 l 281 121 l 229 196 l 229 333 l 497 333 l 732 575 l 613 747 l 217 747 m 229 586 l 269 628 l 546 628 l 576 581 l 449 446 l 229 446 l 229 586 m 606 842 l 222 842 l 222 961 l 606 961 l 606 842 z "},"ę":{"ha":833,"x_min":101,"x_max":732,"o":"m 217 747 l 101 628 l 101 171 l 217 0 l 613 0 l 715 106 l 643 197 l 565 121 l 281 121 l 229 196 l 229 333 l 497 333 l 732 575 l 613 747 l 217 747 m 229 586 l 269 628 l 546 628 l 576 581 l 449 446 l 229 446 l 229 586 m 479 -156 l 340 -156 l 479 14 l 358 28 l 238 -104 l 238 -161 l 349 -254 l 479 -254 l 479 -156 z "},"f":{"ha":833,"x_min":100,"x_max":733,"o":"m 344 972 l 211 836 l 211 579 l 100 579 l 100 460 l 211 460 l 211 0 l 342 0 l 342 460 l 600 460 l 600 579 l 342 579 l 342 797 l 397 853 l 600 853 l 649 781 l 733 867 l 658 972 l 344 972 z "},"g":{"ha":833,"x_min":99,"x_max":733,"o":"m 321 67 l 581 67 l 600 35 l 600 -64 l 492 -172 l 299 -172 l 250 -100 l 250 -1 l 321 67 m 246 588 l 300 646 l 553 646 l 601 576 l 601 464 l 496 400 l 246 400 l 246 588 m 503 278 l 732 419 l 732 767 l 601 767 l 601 707 l 501 767 l 250 767 l 115 625 l 115 351 l 169 317 l 99 246 l 193 103 l 117 26 l 117 -122 l 238 -293 l 542 -293 l 733 -101 l 733 49 l 644 188 l 276 188 l 250 232 l 296 278 l 503 278 z "},"ğ":{"ha":833,"x_min":99,"x_max":733,"o":"m 321 67 l 581 67 l 600 35 l 600 -64 l 492 -172 l 299 -172 l 250 -100 l 250 -1 l 321 67 m 246 588 l 300 646 l 553 646 l 601 576 l 601 464 l 496 400 l 246 400 l 246 588 m 503 278 l 732 419 l 732 767 l 601 767 l 601 707 l 501 767 l 250 767 l 115 625 l 115 351 l 169 317 l 99 246 l 193 103 l 117 26 l 117 -122 l 238 -293 l 542 -293 l 733 -101 l 733 49 l 644 188 l 276 188 l 250 232 l 296 278 l 503 278 m 147 974 l 147 1060 l 300 1060 l 300 931 l 478 931 l 478 1060 l 631 1060 l 631 974 l 486 828 l 292 828 l 147 974 z "},"ģ":{"ha":833,"x_min":99,"x_max":733,"o":"m 321 67 l 581 67 l 600 35 l 600 -64 l 492 -172 l 299 -172 l 250 -100 l 250 -1 l 321 67 m 246 588 l 300 646 l 553 646 l 601 576 l 601 464 l 496 400 l 246 400 l 246 588 m 503 278 l 732 419 l 732 767 l 601 767 l 601 707 l 501 767 l 250 767 l 115 625 l 115 351 l 169 317 l 99 246 l 193 103 l 117 26 l 117 -122 l 238 -293 l 542 -293 l 733 -101 l 733 49 l 644 188 l 276 188 l 250 232 l 296 278 l 503 278 m 468 865 l 468 1022 l 385 1022 l 385 1097 l 453 1169 l 386 1231 l 296 1140 l 296 865 l 468 865 z "},"ġ":{"ha":833,"x_min":99,"x_max":733,"o":"m 321 67 l 581 67 l 600 35 l 600 -64 l 492 -172 l 299 -172 l 250 -100 l 250 -1 l 321 67 m 246 588 l 300 646 l 553 646 l 601 576 l 601 464 l 496 400 l 246 400 l 246 588 m 503 278 l 732 419 l 732 767 l 601 767 l 601 707 l 501 767 l 250 767 l 115 625 l 115 351 l 169 317 l 99 246 l 193 103 l 117 26 l 117 -122 l 238 -293 l 542 -293 l 733 -101 l 733 49 l 644 188 l 276 188 l 250 232 l 296 278 l 503 278 m 310 828 l 310 986 l 468 986 l 468 828 l 310 828 z "},"h":{"ha":833,"x_min":100,"x_max":735,"o":"m 100 1050 l 231 1050 l 231 688 l 329 747 l 614 747 l 735 576 l 735 0 l 603 0 l 603 557 l 554 628 l 271 628 l 231 590 l 231 0 l 100 0 l 100 1050 z "},"ħ":{"ha":833,"x_min":0,"x_max":735,"o":"m 100 1050 l 231 1050 l 231 688 l 329 747 l 614 747 l 735 576 l 735 0 l 603 0 l 603 557 l 554 628 l 271 628 l 231 590 l 231 0 l 100 0 l 100 1050 m 361 843 l 0 843 l 0 963 l 361 963 l 361 843 z "},"i":{"ha":833,"x_min":100,"x_max":733,"o":"m 157 774 l 157 656 l 304 656 l 353 582 l 353 117 l 100 117 l 100 0 l 733 0 l 733 117 l 481 117 l 481 601 l 365 774 l 157 774 m 338 944 l 338 1103 l 496 1103 l 496 944 l 338 944 z "},"ı":{"ha":833,"x_min":100,"x_max":733,"o":"m 157 774 l 157 656 l 304 656 l 353 582 l 353 117 l 100 117 l 100 0 l 733 0 l 733 117 l 481 117 l 481 601 l 365 774 l 157 774 z "},"í":{"ha":833,"x_min":100,"x_max":733,"o":"m 157 774 l 157 656 l 304 656 l 353 582 l 353 117 l 100 117 l 100 0 l 733 0 l 733 117 l 481 117 l 481 601 l 365 774 l 157 774 m 294 940 l 579 1078 l 503 1185 l 244 1015 l 294 940 z "},"î":{"ha":833,"x_min":100,"x_max":733,"o":"m 157 774 l 157 656 l 304 656 l 353 582 l 353 117 l 100 117 l 100 0 l 733 0 l 733 117 l 481 117 l 481 601 l 365 774 l 157 774 m 451 1157 l 383 1157 l 185 1007 l 251 935 l 415 1038 l 582 935 l 647 1007 l 451 1157 z "},"ï":{"ha":833,"x_min":100,"x_max":733,"o":"m 157 774 l 157 656 l 304 656 l 353 582 l 353 117 l 100 117 l 100 0 l 733 0 l 733 117 l 481 117 l 481 601 l 365 774 l 157 774 m 194 943 l 194 1096 l 347 1096 l 347 943 l 194 943 m 486 943 l 486 1096 l 639 1096 l 639 943 l 486 943 z "},"ì":{"ha":833,"x_min":100,"x_max":733,"o":"m 157 774 l 157 656 l 304 656 l 353 582 l 353 117 l 100 117 l 100 0 l 733 0 l 733 117 l 481 117 l 481 601 l 365 774 l 157 774 m 539 938 l 589 1013 l 331 1182 l 254 1075 l 539 938 z "},"ĳ":{"ha":833,"x_min":99,"x_max":735,"o":"m 99 818 l 258 818 l 258 972 l 99 972 l 99 818 m 575 818 l 735 818 l 735 972 l 575 972 l 575 818 m 588 678 l 588 40 l 244 114 l 244 678 l 114 678 l 114 35 l 586 -85 l 586 -103 l 438 -251 l 264 -251 l 264 -371 l 488 -371 l 719 -132 l 719 678 l 588 678 z "},"ī":{"ha":833,"x_min":100,"x_max":733,"o":"m 157 774 l 157 656 l 304 656 l 353 582 l 353 117 l 100 117 l 100 0 l 733 0 l 733 117 l 481 117 l 481 601 l 365 774 l 157 774 m 608 944 l 225 944 l 225 1064 l 608 1064 l 608 944 z "},"į":{"ha":833,"x_min":100,"x_max":733,"o":"m 157 774 l 157 656 l 304 656 l 353 582 l 353 117 l 100 117 l 100 0 l 733 0 l 733 117 l 481 117 l 481 601 l 365 774 l 157 774 m 338 944 l 338 1103 l 496 1103 l 496 944 l 338 944 m 482 -156 l 343 -156 l 482 14 l 361 28 l 240 -104 l 240 -161 l 351 -254 l 482 -254 l 482 -156 z "},"j":{"ha":833,"x_min":204,"x_max":631,"o":"m 324 768 l 631 768 l 631 86 l 399 -153 l 204 -153 l 204 -35 l 350 -35 l 500 122 l 500 651 l 324 651 l 324 768 m 403 950 l 403 1108 l 561 1108 l 561 950 l 403 950 z "},"ȷ":{"ha":833,"x_min":204,"x_max":631,"o":"m 324 768 l 631 768 l 631 86 l 399 -153 l 204 -153 l 204 -35 l 350 -35 l 500 122 l 500 651 l 324 651 l 324 768 z "},"k":{"ha":833,"x_min":100,"x_max":735,"o":"m 100 1039 l 100 0 l 231 0 l 231 332 l 369 475 l 603 133 l 603 0 l 735 0 l 735 151 l 456 564 l 676 790 l 510 790 l 231 501 l 231 1039 l 100 1039 z "},"ķ":{"ha":833,"x_min":100,"x_max":735,"o":"m 100 1039 l 100 0 l 231 0 l 231 332 l 369 475 l 603 133 l 603 0 l 735 0 l 735 151 l 456 564 l 676 790 l 510 790 l 231 501 l 231 1039 l 100 1039 m 351 -411 l 535 -154 l 419 -92 l 269 -362 l 351 -411 z "},"l":{"ha":833,"x_min":108,"x_max":724,"o":"m 108 1039 l 108 921 l 304 921 l 304 172 l 421 0 l 722 0 l 724 118 l 483 118 l 435 192 l 435 968 l 317 1039 l 108 1039 z "},"ĺ":{"ha":833,"x_min":108,"x_max":724,"o":"m 108 1039 l 108 921 l 304 921 l 304 172 l 421 0 l 722 0 l 724 118 l 483 118 l 435 192 l 435 968 l 317 1039 l 108 1039 m 251 1128 l 536 1265 l 460 1372 l 201 1203 l 251 1128 z "},"ľ":{"ha":833,"x_min":108,"x_max":792,"o":"m 108 1039 l 108 921 l 304 921 l 304 172 l 421 0 l 722 0 l 724 118 l 483 118 l 435 192 l 435 968 l 317 1039 l 108 1039 m 626 1019 l 792 996 l 683 674 l 575 696 l 626 1019 z "},"ļ":{"ha":833,"x_min":108,"x_max":724,"o":"m 108 1039 l 108 921 l 304 921 l 304 172 l 421 0 l 722 0 l 724 118 l 483 118 l 435 192 l 435 968 l 317 1039 l 108 1039 m 443 -435 l 626 -178 l 511 -115 l 361 -386 l 443 -435 z "},"ł":{"ha":833,"x_min":63,"x_max":760,"o":"m 108 1039 l 108 921 l 304 921 l 304 172 l 421 0 l 722 0 l 724 118 l 483 118 l 435 192 l 435 968 l 317 1039 l 108 1039 m 664 894 l 63 28 l 158 -40 l 760 826 l 664 894 z "},"m":{"ha":833,"x_min":72,"x_max":763,"o":"m 72 747 l 72 0 l 203 0 l 203 588 l 240 628 l 304 628 l 353 556 l 353 385 l 485 385 l 485 588 l 521 628 l 583 628 l 631 556 l 631 0 l 763 0 l 763 575 l 646 747 l 583 747 l 429 654 l 368 747 l 301 747 l 203 688 l 203 747 l 72 747 z "},"n":{"ha":833,"x_min":100,"x_max":735,"o":"m 100 747 l 100 0 l 231 0 l 231 589 l 268 628 l 554 628 l 603 557 l 603 0 l 735 0 l 735 576 l 618 747 l 331 747 l 231 688 l 231 747 l 100 747 z "},"ń":{"ha":833,"x_min":100,"x_max":735,"o":"m 100 747 l 100 0 l 231 0 l 231 589 l 268 628 l 554 628 l 603 557 l 603 0 l 735 0 l 735 576 l 618 747 l 331 747 l 231 688 l 231 747 l 100 747 m 353 838 l 638 975 l 561 1082 l 303 913 l 353 838 z "},"ň":{"ha":833,"x_min":100,"x_max":735,"o":"m 100 747 l 100 0 l 231 0 l 231 589 l 268 628 l 554 628 l 603 557 l 603 0 l 735 0 l 735 576 l 618 747 l 331 747 l 231 688 l 231 747 l 100 747 m 510 842 l 706 990 l 640 1064 l 474 961 l 310 1064 l 243 990 l 442 842 l 510 842 z "},"ņ":{"ha":833,"x_min":100,"x_max":735,"o":"m 100 747 l 100 0 l 231 0 l 231 589 l 268 628 l 554 628 l 603 557 l 603 0 l 735 0 l 735 576 l 618 747 l 331 747 l 231 688 l 231 747 l 100 747 m 351 -411 l 535 -154 l 419 -92 l 269 -362 l 351 -411 z "},"ñ":{"ha":833,"x_min":100,"x_max":761,"o":"m 100 747 l 100 0 l 231 0 l 231 589 l 268 628 l 554 628 l 603 557 l 603 0 l 735 0 l 735 576 l 618 747 l 331 747 l 231 688 l 231 747 l 100 747 m 710 1019 l 597 951 l 340 1019 l 189 929 l 240 842 l 358 914 l 610 842 l 761 932 l 710 1019 z "},"o":{"ha":833,"x_min":101,"x_max":736,"o":"m 218 747 l 619 747 l 736 574 l 736 121 l 619 0 l 219 0 l 101 174 l 101 626 l 218 747 m 231 193 l 281 119 l 567 119 l 603 157 l 603 556 l 554 628 l 268 628 l 231 588 l 231 193 z "},"ó":{"ha":833,"x_min":101,"x_max":736,"o":"m 218 747 l 619 747 l 736 574 l 736 121 l 619 0 l 219 0 l 101 174 l 101 626 l 218 747 m 231 193 l 281 119 l 567 119 l 603 157 l 603 556 l 554 628 l 268 628 l 231 588 l 231 193 m 296 838 l 581 975 l 504 1082 l 246 913 l 296 838 z "},"ô":{"ha":833,"x_min":101,"x_max":736,"o":"m 218 747 l 619 747 l 736 574 l 736 121 l 619 0 l 219 0 l 101 174 l 101 626 l 218 747 m 231 193 l 281 119 l 567 119 l 603 157 l 603 556 l 554 628 l 268 628 l 231 588 l 231 193 m 453 1056 l 385 1056 l 186 906 l 253 833 l 417 936 l 583 833 l 649 906 l 453 1056 z "},"ö":{"ha":833,"x_min":101,"x_max":736,"o":"m 218 747 l 619 747 l 736 574 l 736 121 l 619 0 l 219 0 l 101 174 l 101 626 l 218 747 m 231 193 l 281 119 l 567 119 l 603 157 l 603 556 l 554 628 l 268 628 l 231 588 l 231 193 m 196 842 l 196 994 l 349 994 l 349 842 l 196 842 m 488 842 l 488 994 l 640 994 l 640 842 l 488 842 z "},"ò":{"ha":833,"x_min":101,"x_max":736,"o":"m 218 747 l 619 747 l 736 574 l 736 121 l 619 0 l 219 0 l 101 174 l 101 626 l 218 747 m 231 193 l 281 119 l 567 119 l 603 157 l 603 556 l 554 628 l 268 628 l 231 588 l 231 193 m 540 836 l 590 911 l 332 1081 l 256 974 l 540 836 z "},"ő":{"ha":833,"x_min":101,"x_max":756,"o":"m 218 747 l 619 747 l 736 574 l 736 121 l 619 0 l 219 0 l 101 174 l 101 626 l 218 747 m 231 193 l 281 119 l 567 119 l 603 157 l 603 556 l 554 628 l 268 628 l 231 588 l 231 193 m 325 835 l 517 1086 l 397 1151 l 244 882 l 325 835 m 538 835 l 756 1064 l 644 1142 l 461 892 l 538 835 z "},"ø":{"ha":833,"x_min":101,"x_max":736,"o":"m 218 747 l 619 747 l 736 574 l 736 121 l 619 0 l 219 0 l 101 174 l 101 626 l 218 747 m 231 193 l 281 119 l 567 119 l 603 157 l 603 556 l 554 628 l 268 628 l 231 588 l 231 193 m 583 1090 l 694 1053 l 288 -144 l 176 -107 l 583 1090 z "},"õ":{"ha":833,"x_min":101,"x_max":736,"o":"m 218 747 l 619 747 l 736 574 l 736 121 l 619 0 l 219 0 l 101 174 l 101 626 l 218 747 m 231 193 l 281 119 l 567 119 l 603 157 l 603 556 l 554 628 l 268 628 l 231 588 l 231 193 m 653 1021 l 540 953 l 283 1021 l 132 931 l 183 843 l 301 915 l 553 843 l 704 933 l 653 1021 z "},"œ":{"ha":833,"x_min":0,"x_max":833,"o":"m 117 747 l 0 626 l 0 174 l 118 0 l 368 0 l 428 64 l 471 0 l 713 0 l 818 108 l 750 208 l 663 119 l 535 119 l 485 193 l 485 326 l 597 326 l 833 571 l 714 747 l 471 747 l 410 685 l 368 747 l 117 747 m 132 193 l 132 589 l 168 628 l 304 628 l 354 556 l 354 157 l 317 119 l 182 119 l 132 193 m 485 589 l 522 628 l 650 628 l 679 585 l 546 446 l 485 446 l 485 589 z "},"p":{"ha":833,"x_min":100,"x_max":733,"o":"m 329 747 l 231 686 l 231 747 l 100 747 l 100 -300 l 231 -300 l 231 60 l 331 0 l 617 0 l 733 121 l 733 574 l 619 747 l 329 747 m 231 193 l 231 589 l 268 626 l 553 626 l 601 554 l 601 156 l 565 118 l 281 118 l 231 193 z "},"þ":{"ha":833,"x_min":100,"x_max":733,"o":"m 100 1049 l 100 -275 l 231 -275 l 231 60 l 332 0 l 615 0 l 733 124 l 733 572 l 615 749 l 329 749 l 231 688 l 231 1049 l 100 1049 m 231 589 l 269 628 l 553 628 l 603 554 l 603 158 l 567 119 l 231 119 l 231 589 z "},"q":{"ha":833,"x_min":100,"x_max":733,"o":"m 217 747 l 100 626 l 100 174 l 217 0 l 503 0 l 601 60 l 601 -300 l 733 -300 l 733 746 l 601 746 l 601 686 l 501 747 l 217 747 m 231 193 l 231 589 l 269 626 l 551 626 l 601 556 l 601 157 l 564 118 l 281 118 l 231 193 z "},"r":{"ha":833,"x_min":92,"x_max":742,"o":"m 92 747 l 92 628 l 182 628 l 232 556 l 232 118 l 92 118 l 92 0 l 558 0 l 558 118 l 361 118 l 361 569 l 417 628 l 600 628 l 643 563 l 742 629 l 663 747 l 367 747 l 293 671 l 164 747 l 92 747 z "},"ŕ":{"ha":833,"x_min":92,"x_max":742,"o":"m 92 747 l 92 628 l 182 628 l 232 556 l 232 118 l 92 118 l 92 0 l 558 0 l 558 118 l 361 118 l 361 569 l 417 628 l 600 628 l 643 563 l 742 629 l 663 747 l 367 747 l 293 671 l 164 747 l 92 747 m 390 838 l 675 975 l 599 1082 l 340 913 l 390 838 z "},"ř":{"ha":833,"x_min":92,"x_max":743,"o":"m 92 747 l 92 628 l 182 628 l 232 556 l 232 118 l 92 118 l 92 0 l 558 0 l 558 118 l 361 118 l 361 569 l 417 628 l 600 628 l 643 563 l 742 629 l 663 747 l 367 747 l 293 671 l 164 747 l 92 747 m 547 842 l 743 990 l 678 1064 l 511 961 l 347 1064 l 281 990 l 479 842 l 547 842 z "},"s":{"ha":833,"x_min":114,"x_max":719,"o":"m 228 750 l 618 750 l 697 633 l 617 547 l 557 635 l 283 635 l 246 601 l 246 510 l 294 442 l 621 442 l 719 293 l 719 110 l 621 0 l 175 0 l 114 96 l 194 181 l 236 119 l 565 119 l 590 146 l 590 271 l 554 322 l 226 322 l 117 488 l 117 642 l 228 750 z "},"ś":{"ha":833,"x_min":114,"x_max":719,"o":"m 228 750 l 618 750 l 697 633 l 617 547 l 557 635 l 283 635 l 246 601 l 246 510 l 294 442 l 621 442 l 719 293 l 719 110 l 621 0 l 175 0 l 114 96 l 194 181 l 236 119 l 565 119 l 590 146 l 590 271 l 554 322 l 226 322 l 117 488 l 117 642 l 228 750 m 299 838 l 583 975 l 507 1082 l 249 913 l 299 838 z "},"š":{"ha":833,"x_min":114,"x_max":719,"o":"m 228 750 l 618 750 l 697 633 l 617 547 l 557 635 l 283 635 l 246 601 l 246 510 l 294 442 l 621 442 l 719 293 l 719 110 l 621 0 l 175 0 l 114 96 l 194 181 l 236 119 l 565 119 l 590 146 l 590 271 l 554 322 l 226 322 l 117 488 l 117 642 l 228 750 m 456 842 l 651 990 l 586 1064 l 419 961 l 256 1064 l 189 990 l 388 842 l 456 842 z "},"ş":{"ha":833,"x_min":114,"x_max":719,"o":"m 228 750 l 618 750 l 697 633 l 617 547 l 557 635 l 283 635 l 246 601 l 246 510 l 294 442 l 621 442 l 719 293 l 719 110 l 621 0 l 175 0 l 114 96 l 194 181 l 236 119 l 565 119 l 590 146 l 590 271 l 554 322 l 226 322 l 117 488 l 117 642 l 228 750 m 318 -167 l 457 -167 l 318 3 l 453 3 l 560 -115 l 560 -172 l 449 -264 l 318 -264 l 318 -167 z "},"ș":{"ha":833,"x_min":114,"x_max":719,"o":"m 228 750 l 618 750 l 697 633 l 617 547 l 557 635 l 283 635 l 246 601 l 246 510 l 294 442 l 621 442 l 719 293 l 719 110 l 621 0 l 175 0 l 114 96 l 194 181 l 236 119 l 565 119 l 590 146 l 590 271 l 554 322 l 226 322 l 117 488 l 117 642 l 228 750 m 351 -411 l 535 -154 l 419 -92 l 269 -362 l 351 -411 z "},"ß":{"ha":833,"x_min":99,"x_max":733,"o":"m 331 997 l 99 754 l 99 0 l 231 0 l 231 717 l 356 850 l 504 756 l 308 594 l 308 468 l 515 468 l 603 339 l 603 164 l 560 119 l 396 119 l 396 0 l 610 0 l 733 126 l 733 357 l 578 588 l 471 588 l 618 700 l 618 829 l 331 997 z "},"t":{"ha":833,"x_min":128,"x_max":706,"o":"m 238 1039 l 368 1039 l 368 749 l 593 749 l 593 628 l 368 628 l 368 193 l 417 119 l 550 119 l 638 208 l 706 110 l 603 0 l 354 0 l 238 171 l 238 628 l 128 628 l 128 749 l 238 749 l 238 1039 z "},"ť":{"ha":833,"x_min":128,"x_max":742,"o":"m 238 1039 l 368 1039 l 368 749 l 593 749 l 593 628 l 368 628 l 368 193 l 417 119 l 550 119 l 638 208 l 706 110 l 603 0 l 354 0 l 238 171 l 238 628 l 128 628 l 128 749 l 238 749 l 238 1039 m 576 1233 l 742 1210 l 633 888 l 525 910 l 576 1233 z "},"ț":{"ha":833,"x_min":128,"x_max":706,"o":"m 238 1039 l 368 1039 l 368 749 l 593 749 l 593 628 l 368 628 l 368 193 l 417 119 l 550 119 l 638 208 l 706 110 l 603 0 l 354 0 l 238 171 l 238 628 l 128 628 l 128 749 l 238 749 l 238 1039 m 413 -411 l 596 -154 l 481 -92 l 331 -362 l 413 -411 z "},"u":{"ha":833,"x_min":100,"x_max":733,"o":"m 601 747 l 601 157 l 567 119 l 281 119 l 231 193 l 231 747 l 100 747 l 100 174 l 218 0 l 503 0 l 604 61 l 604 0 l 733 0 l 733 747 l 601 747 z "},"ú":{"ha":833,"x_min":100,"x_max":733,"o":"m 601 747 l 601 157 l 567 119 l 281 119 l 231 193 l 231 747 l 100 747 l 100 174 l 218 0 l 503 0 l 604 61 l 604 0 l 733 0 l 733 747 l 601 747 m 294 838 l 579 975 l 503 1082 l 244 913 l 294 838 z "},"û":{"ha":833,"x_min":100,"x_max":733,"o":"m 601 747 l 601 157 l 567 119 l 281 119 l 231 193 l 231 747 l 100 747 l 100 174 l 218 0 l 503 0 l 604 61 l 604 0 l 733 0 l 733 747 l 601 747 m 451 1056 l 383 1056 l 185 906 l 251 833 l 415 936 l 582 833 l 647 906 l 451 1056 z "},"ü":{"ha":833,"x_min":100,"x_max":733,"o":"m 601 747 l 601 157 l 567 119 l 281 119 l 231 193 l 231 747 l 100 747 l 100 174 l 218 0 l 503 0 l 604 61 l 604 0 l 733 0 l 733 747 l 601 747 m 194 842 l 194 994 l 347 994 l 347 842 l 194 842 m 486 842 l 486 994 l 639 994 l 639 842 l 486 842 z "},"ù":{"ha":833,"x_min":100,"x_max":733,"o":"m 601 747 l 601 157 l 567 119 l 281 119 l 231 193 l 231 747 l 100 747 l 100 174 l 218 0 l 503 0 l 604 61 l 604 0 l 733 0 l 733 747 l 601 747 m 539 836 l 589 911 l 331 1081 l 254 974 l 539 836 z "},"ű":{"ha":833,"x_min":100,"x_max":754,"o":"m 601 747 l 601 157 l 567 119 l 281 119 l 231 193 l 231 747 l 100 747 l 100 174 l 218 0 l 503 0 l 604 61 l 604 0 l 733 0 l 733 747 l 601 747 m 324 835 l 515 1086 l 396 1151 l 243 882 l 324 835 m 536 835 l 754 1064 l 643 1142 l 460 892 l 536 835 z "},"ū":{"ha":833,"x_min":100,"x_max":733,"o":"m 601 747 l 601 157 l 567 119 l 281 119 l 231 193 l 231 747 l 100 747 l 100 174 l 218 0 l 503 0 l 604 61 l 604 0 l 733 0 l 733 747 l 601 747 m 608 842 l 225 842 l 225 961 l 608 961 l 608 842 z "},"ų":{"ha":833,"x_min":100,"x_max":733,"o":"m 601 747 l 601 157 l 567 119 l 281 119 l 231 193 l 231 747 l 100 747 l 100 174 l 218 0 l 503 0 l 604 61 l 604 0 l 733 0 l 733 747 l 601 747 m 733 -169 l 594 -169 l 733 0 l 613 14 l 492 -118 l 492 -175 l 603 -268 l 733 -268 l 733 -169 z "},"ů":{"ha":833,"x_min":100,"x_max":733,"o":"m 601 747 l 601 157 l 567 119 l 281 119 l 231 193 l 231 747 l 100 747 l 100 174 l 218 0 l 503 0 l 604 61 l 604 0 l 733 0 l 733 747 l 601 747 m 351 1147 l 264 1058 l 264 929 l 351 842 l 479 842 l 569 929 l 569 1058 l 479 1147 l 351 1147 m 386 1065 l 446 1065 l 489 1024 l 489 964 l 446 924 l 386 924 l 344 964 l 344 1024 l 386 1065 z "},"v":{"ha":833,"x_min":100,"x_max":735,"o":"m 603 749 l 603 356 l 381 124 l 231 347 l 231 749 l 100 749 l 100 326 l 319 0 l 426 0 l 735 319 l 735 749 l 603 749 z "},"w":{"ha":833,"x_min":26,"x_max":808,"o":"m 679 747 l 679 254 l 563 133 l 558 133 l 482 247 l 482 747 l 351 747 l 351 211 l 276 132 l 269 132 l 157 296 l 157 747 l 26 747 l 26 276 l 213 0 l 321 0 l 429 111 l 500 0 l 610 0 l 808 206 l 808 747 l 679 747 z "},"ẃ":{"ha":833,"x_min":26,"x_max":808,"o":"m 679 747 l 679 254 l 563 133 l 558 133 l 482 247 l 482 747 l 351 747 l 351 211 l 276 132 l 269 132 l 157 296 l 157 747 l 26 747 l 26 276 l 213 0 l 321 0 l 429 111 l 500 0 l 610 0 l 808 206 l 808 747 l 679 747 m 294 838 l 579 975 l 503 1082 l 244 913 l 294 838 z "},"ŵ":{"ha":833,"x_min":26,"x_max":808,"o":"m 679 747 l 679 254 l 563 133 l 558 133 l 482 247 l 482 747 l 351 747 l 351 211 l 276 132 l 269 132 l 157 296 l 157 747 l 26 747 l 26 276 l 213 0 l 321 0 l 429 111 l 500 0 l 610 0 l 808 206 l 808 747 l 679 747 m 451 1056 l 383 1056 l 185 906 l 251 833 l 415 936 l 582 833 l 647 906 l 451 1056 z "},"ẅ":{"ha":833,"x_min":26,"x_max":808,"o":"m 679 747 l 679 254 l 563 133 l 558 133 l 482 247 l 482 747 l 351 747 l 351 211 l 276 132 l 269 132 l 157 296 l 157 747 l 26 747 l 26 276 l 213 0 l 321 0 l 429 111 l 500 0 l 610 0 l 808 206 l 808 747 l 679 747 m 194 842 l 194 994 l 347 994 l 347 842 l 194 842 m 486 842 l 486 994 l 639 994 l 639 842 l 486 842 z "},"ẁ":{"ha":833,"x_min":26,"x_max":808,"o":"m 679 747 l 679 254 l 563 133 l 558 133 l 482 247 l 482 747 l 351 747 l 351 211 l 276 132 l 269 132 l 157 296 l 157 747 l 26 747 l 26 276 l 213 0 l 321 0 l 429 111 l 500 0 l 610 0 l 808 206 l 808 747 l 679 747 m 539 836 l 589 911 l 331 1081 l 254 974 l 539 836 z "},"x":{"ha":833,"x_min":99,"x_max":735,"o":"m 603 747 l 603 613 l 444 450 l 306 450 l 229 563 l 229 747 l 99 747 l 99 543 l 232 342 l 232 339 l 99 201 l 99 0 l 229 0 l 229 168 l 386 331 l 526 331 l 603 217 l 603 0 l 735 0 l 735 236 l 599 438 l 735 576 l 735 747 l 603 747 z "},"y":{"ha":833,"x_min":100,"x_max":733,"o":"m 601 747 l 601 119 l 308 119 l 231 231 l 231 747 l 100 747 l 100 211 l 243 0 l 601 0 l 601 -25 l 449 -182 l 100 -182 l 100 -301 l 503 -301 l 733 -61 l 733 747 l 601 747 z "},"ý":{"ha":833,"x_min":100,"x_max":733,"o":"m 601 747 l 601 119 l 308 119 l 231 231 l 231 747 l 100 747 l 100 211 l 243 0 l 601 0 l 601 -25 l 449 -182 l 100 -182 l 100 -301 l 503 -301 l 733 -61 l 733 747 l 601 747 m 294 825 l 579 963 l 503 1069 l 244 900 l 294 825 z "},"ŷ":{"ha":833,"x_min":100,"x_max":733,"o":"m 601 747 l 601 119 l 308 119 l 231 231 l 231 747 l 100 747 l 100 211 l 243 0 l 601 0 l 601 -25 l 449 -182 l 100 -182 l 100 -301 l 503 -301 l 733 -61 l 733 747 l 601 747 m 451 1043 l 383 1043 l 185 893 l 251 821 l 415 924 l 582 821 l 647 893 l 451 1043 z "},"ÿ":{"ha":833,"x_min":100,"x_max":733,"o":"m 601 747 l 601 119 l 308 119 l 231 231 l 231 747 l 100 747 l 100 211 l 243 0 l 601 0 l 601 -25 l 449 -182 l 100 -182 l 100 -301 l 503 -301 l 733 -61 l 733 747 l 601 747 m 194 829 l 194 982 l 347 982 l 347 829 l 194 829 m 486 829 l 486 982 l 639 982 l 639 829 l 486 829 z "},"ỳ":{"ha":833,"x_min":100,"x_max":733,"o":"m 601 747 l 601 119 l 308 119 l 231 231 l 231 747 l 100 747 l 100 211 l 243 0 l 601 0 l 601 -25 l 449 -182 l 100 -182 l 100 -301 l 503 -301 l 733 -61 l 733 747 l 601 747 m 539 824 l 589 899 l 331 1068 l 254 961 l 539 824 z "},"z":{"ha":833,"x_min":106,"x_max":728,"o":"m 106 747 l 106 628 l 589 628 l 589 615 l 106 114 l 106 0 l 728 0 l 728 119 l 263 119 l 728 601 l 728 747 l 106 747 z "},"ź":{"ha":833,"x_min":106,"x_max":728,"o":"m 106 747 l 106 628 l 589 628 l 589 615 l 106 114 l 106 0 l 728 0 l 728 119 l 263 119 l 728 601 l 728 747 l 106 747 m 294 825 l 579 963 l 503 1069 l 244 900 l 294 825 z "},"ž":{"ha":833,"x_min":106,"x_max":728,"o":"m 106 747 l 106 628 l 589 628 l 589 615 l 106 114 l 106 0 l 728 0 l 728 119 l 263 119 l 728 601 l 728 747 l 106 747 m 451 829 l 647 978 l 582 1051 l 415 949 l 251 1051 l 185 978 l 383 829 l 451 829 z "},"ż":{"ha":833,"x_min":106,"x_max":728,"o":"m 106 747 l 106 628 l 589 628 l 589 615 l 106 114 l 106 0 l 728 0 l 728 119 l 263 119 l 728 601 l 728 747 l 106 747 m 338 831 l 338 989 l 496 989 l 496 831 l 338 831 z "},"ª":{"ha":833,"x_min":90,"x_max":742,"o":"m 206 768 l 206 649 l 608 649 l 608 467 l 310 467 l 90 239 l 90 178 l 210 0 l 504 0 l 608 63 l 608 0 l 742 0 l 742 635 l 651 768 l 206 768 m 226 197 l 226 206 l 361 344 l 606 344 l 606 122 l 271 122 l 226 197 z "},"º":{"ha":833,"x_min":101,"x_max":736,"o":"m 218 747 l 619 747 l 736 574 l 736 121 l 619 0 l 219 0 l 101 174 l 101 626 l 218 747 m 231 193 l 281 119 l 567 119 l 603 157 l 603 556 l 554 628 l 268 628 l 231 588 l 231 193 z "},"Δ":{"ha":833,"x_min":54,"x_max":785,"o":"m 504 972 l 329 972 l 54 0 l 785 0 l 504 972 m 426 832 l 633 119 l 206 119 l 407 832 l 426 832 z "},"μ":{"ha":833,"x_min":88,"x_max":765,"o":"m 721 718 l 721 139 l 765 0 l 658 0 l 629 56 l 576 0 l 319 0 l 219 58 l 219 -300 l 88 -300 l 89 718 l 219 718 l 219 193 l 268 118 l 554 118 l 589 156 l 590 718 l 721 718 z "},"π":{"ha":833,"x_min":33,"x_max":800,"o":"m 800 751 l 33 751 l 33 631 l 156 631 l 156 0 l 275 0 l 275 631 l 560 631 l 560 203 l 651 0 l 772 0 l 681 200 l 681 631 l 800 631 l 800 751 z "},"⁄":{"ha":833,"x_min":31,"x_max":810,"o":"m 64 224 l 810 581 l 778 635 l 31 278 l 64 224 z "},"⅟":{"ha":833,"x_min":31,"x_max":810,"o":"m 64 224 l 810 581 l 778 635 l 31 278 l 64 224 m 217 1083 l 88 951 l 133 885 l 208 963 l 208 663 l 82 663 l 82 583 l 417 583 l 417 663 l 293 663 l 293 1083 l 217 1083 z "},"½":{"ha":833,"x_min":31,"x_max":810,"o":"m 64 224 l 810 581 l 778 635 l 31 278 l 64 224 m 217 1083 l 88 951 l 133 885 l 208 963 l 208 663 l 82 663 l 82 583 l 417 583 l 417 663 l 293 663 l 293 1083 l 217 1083 m 428 278 l 358 208 l 403 143 l 460 200 l 586 200 l 619 149 l 363 -115 l 363 -222 l 697 -222 l 697 -143 l 446 -143 l 446 -140 l 697 119 l 697 189 l 638 278 l 428 278 z "},"⅓":{"ha":833,"x_min":31,"x_max":810,"o":"m 64 224 l 810 581 l 778 635 l 31 278 l 64 224 m 217 1083 l 88 951 l 133 885 l 208 963 l 208 663 l 82 663 l 82 583 l 417 583 l 417 663 l 293 663 l 293 1083 l 217 1083 m 360 278 l 360 200 l 588 200 l 465 74 l 465 13 l 572 13 l 613 -47 l 613 -126 l 596 -143 l 360 -143 l 360 -222 l 631 -222 l 696 -153 l 696 -32 l 624 76 l 576 76 l 696 200 l 696 278 l 360 278 z "},"⅔":{"ha":833,"x_min":31,"x_max":810,"o":"m 64 224 l 810 581 l 778 635 l 31 278 l 64 224 m 82 1082 l 82 1004 l 310 1004 l 188 878 l 188 817 l 294 817 l 335 757 l 335 678 l 318 661 l 82 661 l 82 582 l 353 582 l 418 651 l 418 772 l 346 881 l 299 881 l 418 1004 l 418 1082 l 82 1082 m 568 278 l 338 40 l 413 -68 l 593 -68 l 593 -222 l 676 -222 l 676 -68 l 718 -68 l 718 10 l 676 10 l 676 278 l 568 278 m 438 32 l 593 192 l 593 10 l 451 10 l 438 32 z "},"¼":{"ha":833,"x_min":31,"x_max":810,"o":"m 64 224 l 810 581 l 778 635 l 31 278 l 64 224 m 217 1083 l 88 951 l 133 885 l 208 963 l 208 663 l 82 663 l 82 583 l 417 583 l 417 663 l 293 663 l 293 1083 l 217 1083 m 568 278 l 338 40 l 413 -68 l 593 -68 l 593 -222 l 676 -222 l 676 -68 l 718 -68 l 718 10 l 676 10 l 676 278 l 568 278 m 438 32 l 593 192 l 593 10 l 451 10 l 438 32 z "},"¾":{"ha":833,"x_min":31,"x_max":810,"o":"m 64 224 l 810 581 l 778 635 l 31 278 l 64 224 m 82 1082 l 82 1004 l 310 1004 l 188 878 l 188 817 l 294 817 l 335 757 l 335 678 l 318 661 l 82 661 l 82 582 l 353 582 l 418 651 l 418 772 l 346 881 l 299 881 l 418 1004 l 418 1082 l 82 1082 m 568 278 l 338 40 l 413 -68 l 593 -68 l 593 -222 l 676 -222 l 676 -68 l 718 -68 l 718 10 l 676 10 l 676 278 l 568 278 m 438 32 l 593 192 l 593 10 l 451 10 l 438 32 z "},"⅛":{"ha":833,"x_min":31,"x_max":810,"o":"m 64 224 l 810 581 l 778 635 l 31 278 l 64 224 m 217 1083 l 88 951 l 133 885 l 208 963 l 208 663 l 82 663 l 82 583 l 417 583 l 417 663 l 293 663 l 293 1083 l 217 1083 m 472 272 l 360 156 l 360 93 l 415 11 l 419 11 l 360 -46 l 360 -135 l 424 -228 l 608 -228 l 694 -136 l 694 -57 l 636 31 l 694 92 l 694 189 l 639 272 l 472 272 m 444 108 l 444 132 l 506 194 l 596 194 l 611 174 l 611 115 l 572 78 l 464 78 l 444 108 m 444 -119 l 444 -72 l 513 0 l 563 0 l 611 -72 l 611 -111 l 572 -149 l 464 -149 l 444 -119 z "},"⅜":{"ha":833,"x_min":31,"x_max":810,"o":"m 64 224 l 810 581 l 778 635 l 31 278 l 64 224 m 82 1082 l 82 1004 l 310 1004 l 188 878 l 188 817 l 294 817 l 335 757 l 335 678 l 318 661 l 82 661 l 82 582 l 353 582 l 418 651 l 418 772 l 346 881 l 299 881 l 418 1004 l 418 1082 l 82 1082 m 568 278 l 338 40 l 413 -68 l 593 -68 l 593 -222 l 676 -222 l 676 -68 l 718 -68 l 718 10 l 676 10 l 676 278 l 568 278 m 438 32 l 593 192 l 593 10 l 451 10 l 438 32 z "},"⅝":{"ha":833,"x_min":31,"x_max":810,"o":"m 64 224 l 810 581 l 778 635 l 31 278 l 64 224 m 82 1083 l 82 915 l 124 854 l 293 854 l 335 796 l 335 679 l 317 661 l 82 661 l 82 583 l 353 583 l 418 653 l 418 811 l 335 933 l 169 933 l 167 940 l 167 1006 l 404 1006 l 404 1083 l 82 1083 m 472 272 l 360 156 l 360 93 l 415 11 l 419 11 l 360 -46 l 360 -135 l 424 -228 l 608 -228 l 694 -136 l 694 -57 l 636 31 l 694 92 l 694 189 l 639 272 l 472 272 m 444 108 l 444 132 l 506 194 l 596 194 l 611 174 l 611 115 l 572 78 l 464 78 l 444 108 m 444 -119 l 444 -72 l 513 0 l 563 0 l 611 -72 l 611 -111 l 572 -149 l 464 -149 l 444 -119 z "},"⅞":{"ha":833,"x_min":31,"x_max":810,"o":"m 64 224 l 810 581 l 778 635 l 31 278 l 64 224 m 82 1083 l 82 1006 l 333 1006 l 333 1000 l 138 800 l 138 583 l 221 583 l 221 774 l 417 974 l 417 1083 l 82 1083 m 472 272 l 360 156 l 360 93 l 415 11 l 419 11 l 360 -46 l 360 -135 l 424 -228 l 608 -228 l 694 -136 l 694 -57 l 636 31 l 694 92 l 694 189 l 639 272 l 472 272 m 444 108 l 444 132 l 506 194 l 596 194 l 611 174 l 611 115 l 572 78 l 464 78 l 444 108 m 444 -119 l 444 -72 l 513 0 l 563 0 l 611 -72 l 611 -111 l 572 -149 l 464 -149 l 444 -119 z "},"₀":{"ha":833,"x_min":249,"x_max":583,"o":"m 314 500 l 249 435 l 249 93 l 313 0 l 521 0 l 583 67 l 583 408 l 522 500 l 314 500 m 333 408 l 346 422 l 479 422 l 500 392 l 500 382 l 333 210 l 333 408 m 333 107 l 333 111 l 500 285 l 500 93 l 486 79 l 353 79 l 333 107 z "},"₁":{"ha":833,"x_min":249,"x_max":583,"o":"m 383 500 l 254 368 l 300 301 l 375 379 l 375 79 l 249 79 l 249 0 l 583 0 l 583 79 l 460 79 l 460 500 l 383 500 z "},"₂":{"ha":833,"x_min":247,"x_max":586,"o":"m 317 500 l 247 431 l 292 365 l 349 422 l 475 422 l 508 371 l 251 107 l 251 0 l 586 0 l 586 79 l 335 79 l 335 82 l 586 342 l 586 411 l 526 500 l 317 500 z "},"₃":{"ha":833,"x_min":249,"x_max":585,"o":"m 249 500 l 249 422 l 476 422 l 354 296 l 354 235 l 461 235 l 501 175 l 501 96 l 485 79 l 249 79 l 249 0 l 519 0 l 585 69 l 585 190 l 513 299 l 465 299 l 585 422 l 585 500 l 249 500 z "},"₄":{"ha":833,"x_min":226,"x_max":607,"o":"m 457 500 l 226 263 l 301 154 l 482 154 l 482 0 l 565 0 l 565 154 l 607 154 l 607 232 l 565 232 l 565 500 l 457 500 m 326 254 l 482 414 l 482 232 l 340 232 l 326 254 z "},"₅":{"ha":833,"x_min":249,"x_max":585,"o":"m 249 500 l 249 332 l 290 271 l 460 271 l 501 213 l 501 96 l 483 78 l 249 78 l 249 0 l 519 0 l 585 69 l 585 228 l 501 350 l 336 350 l 333 357 l 333 422 l 571 422 l 571 500 l 249 500 z "},"₆":{"ha":833,"x_min":249,"x_max":583,"o":"m 313 501 l 249 435 l 249 94 l 304 0 l 496 0 l 583 90 l 583 244 l 547 299 l 363 299 l 333 269 l 333 408 l 346 422 l 528 422 l 528 501 l 313 501 m 333 110 l 333 158 l 394 221 l 500 221 l 500 117 l 464 79 l 354 79 l 333 110 z "},"₇":{"ha":833,"x_min":249,"x_max":583,"o":"m 249 500 l 249 422 l 500 422 l 500 417 l 304 217 l 304 0 l 388 0 l 388 190 l 583 390 l 583 500 l 249 500 z "},"₈":{"ha":833,"x_min":249,"x_max":583,"o":"m 361 500 l 249 383 l 249 321 l 304 239 l 308 239 l 249 182 l 249 93 l 313 0 l 497 0 l 583 92 l 583 171 l 525 258 l 583 319 l 583 417 l 528 500 l 361 500 m 333 336 l 333 360 l 394 422 l 485 422 l 500 401 l 500 343 l 461 306 l 353 306 l 333 336 m 333 108 l 333 156 l 401 228 l 451 228 l 500 156 l 500 117 l 461 79 l 353 79 l 333 108 z "},"₉":{"ha":833,"x_min":249,"x_max":583,"o":"m 292 500 l 249 457 l 249 340 l 329 221 l 500 221 l 500 136 l 450 79 l 276 79 l 276 0 l 485 0 l 583 111 l 583 379 l 503 500 l 292 500 m 333 356 l 333 422 l 460 422 l 500 364 l 500 299 l 371 299 l 333 356 z "},"⁰":{"ha":833,"x_min":249,"x_max":583,"o":"m 314 1000 l 249 935 l 249 593 l 313 500 l 521 500 l 583 567 l 583 908 l 522 1000 l 314 1000 m 333 908 l 346 922 l 479 922 l 500 892 l 500 882 l 333 710 l 333 908 m 333 607 l 333 611 l 500 785 l 500 593 l 486 579 l 353 579 l 333 607 z "},"¹":{"ha":833,"x_min":249,"x_max":583,"o":"m 383 1000 l 254 868 l 300 801 l 375 879 l 375 579 l 249 579 l 249 500 l 583 500 l 583 579 l 460 579 l 460 1000 l 383 1000 z "},"²":{"ha":833,"x_min":247,"x_max":586,"o":"m 317 1000 l 247 931 l 292 865 l 349 922 l 475 922 l 508 871 l 251 607 l 251 500 l 586 500 l 586 579 l 335 579 l 335 582 l 586 842 l 586 911 l 526 1000 l 317 1000 z "},"³":{"ha":833,"x_min":249,"x_max":585,"o":"m 249 1000 l 249 922 l 476 922 l 354 796 l 354 735 l 461 735 l 501 675 l 501 596 l 485 579 l 249 579 l 249 500 l 519 500 l 585 569 l 585 690 l 513 799 l 465 799 l 585 922 l 585 1000 l 249 1000 z "},"⁴":{"ha":833,"x_min":226,"x_max":607,"o":"m 457 1000 l 226 763 l 301 654 l 482 654 l 482 500 l 565 500 l 565 654 l 607 654 l 607 732 l 565 732 l 565 1000 l 457 1000 m 326 754 l 482 914 l 482 732 l 340 732 l 326 754 z "},"⁵":{"ha":833,"x_min":249,"x_max":585,"o":"m 249 1000 l 249 832 l 290 771 l 460 771 l 501 713 l 501 596 l 483 578 l 249 578 l 249 500 l 519 500 l 585 569 l 585 728 l 501 850 l 336 850 l 333 857 l 333 922 l 571 922 l 571 1000 l 249 1000 z "},"⁶":{"ha":833,"x_min":249,"x_max":583,"o":"m 313 1003 l 249 936 l 249 596 l 304 501 l 496 501 l 583 592 l 583 746 l 547 800 l 363 800 l 333 771 l 333 910 l 346 924 l 528 924 l 528 1003 l 313 1003 m 333 611 l 333 660 l 394 722 l 500 722 l 500 618 l 464 581 l 354 581 l 333 611 z "},"⁷":{"ha":833,"x_min":249,"x_max":583,"o":"m 249 1000 l 249 922 l 500 922 l 500 917 l 304 717 l 304 500 l 388 500 l 388 690 l 583 890 l 583 1000 l 249 1000 z "},"⁸":{"ha":833,"x_min":249,"x_max":583,"o":"m 361 1000 l 249 883 l 249 821 l 304 739 l 308 739 l 249 682 l 249 593 l 313 500 l 497 500 l 583 592 l 583 671 l 525 758 l 583 819 l 583 917 l 528 1000 l 361 1000 m 333 836 l 333 860 l 394 922 l 485 922 l 500 901 l 500 843 l 461 806 l 353 806 l 333 836 m 333 608 l 333 656 l 401 728 l 451 728 l 500 656 l 500 617 l 461 579 l 353 579 l 333 608 z "},"⁹":{"ha":833,"x_min":249,"x_max":583,"o":"m 292 1000 l 249 957 l 249 840 l 329 721 l 500 721 l 500 636 l 450 579 l 276 579 l 276 500 l 485 500 l 583 611 l 583 879 l 503 1000 l 292 1000 m 333 856 l 333 922 l 460 922 l 500 864 l 500 799 l 371 799 l 333 856 z "},"﻿":{"ha":0,"x_min":0,"x_max":0,"o":""},"\r":{"ha":833,"x_min":0,"x_max":0,"o":""}," ":{"ha":833,"x_min":0,"x_max":0,"o":""}," ":{"ha":833,"x_min":0,"x_max":0,"o":""},".":{"ha":833,"x_min":307,"x_max":526,"o":"m 307 0 l 307 221 l 526 221 l 526 0 l 307 0 z "},",":{"ha":833,"x_min":310,"x_max":524,"o":"m 310 203 l 310 0 l 393 0 l 393 -132 l 325 -203 l 392 -307 l 524 -174 l 524 203 l 310 203 z "},":":{"ha":833,"x_min":310,"x_max":524,"o":"m 310 742 l 524 742 l 524 528 l 310 528 l 310 742 m 310 249 l 524 249 l 524 35 l 310 35 l 310 249 z "},";":{"ha":833,"x_min":310,"x_max":524,"o":"m 310 528 l 310 742 l 524 742 l 524 528 l 310 528 m 310 181 l 310 -19 l 382 -19 l 382 -110 l 319 -174 l 394 -285 l 524 -158 l 524 181 l 310 181 z "},"…":{"ha":833,"x_min":28,"x_max":806,"o":"m 28 0 l 28 176 l 204 176 l 204 0 l 28 0 m 329 0 l 329 176 l 504 176 l 504 0 l 329 0 m 629 0 l 629 176 l 806 176 l 806 0 l 629 0 z "},"!":{"ha":833,"x_min":335,"x_max":499,"o":"m 499 107 l 335 107 l 335 -39 l 499 -39 l 499 107 m 351 274 l 485 274 l 485 986 l 351 986 l 351 274 z "},"¡":{"ha":833,"x_min":335,"x_max":499,"o":"m 335 782 l 499 782 l 499 928 l 335 928 l 335 782 m 482 615 l 349 615 l 349 -97 l 482 -97 l 482 615 z "},"?":{"ha":833,"x_min":42,"x_max":792,"o":"m 217 978 l 42 796 l 107 694 l 267 858 l 550 858 l 640 724 l 349 422 l 349 265 l 482 265 l 482 389 l 792 713 l 615 978 l 217 978 m 335 -33 l 499 -33 l 499 113 l 335 113 l 335 -33 z "},"¿":{"ha":833,"x_min":42,"x_max":792,"o":"m 617 -35 l 792 147 l 726 249 l 567 85 l 283 85 l 193 219 l 485 521 l 485 678 l 351 678 l 351 554 l 42 231 l 218 -35 l 617 -35 m 499 976 l 335 976 l 335 831 l 499 831 l 499 976 z "},"·":{"ha":833,"x_min":307,"x_max":526,"o":"m 307 307 l 307 526 l 526 526 l 526 307 l 307 307 z "},"•":{"ha":833,"x_min":303,"x_max":531,"o":"m 368 531 l 303 464 l 303 368 l 368 303 l 464 303 l 531 368 l 531 464 l 464 531 l 368 531 z "},"*":{"ha":833,"x_min":133,"x_max":700,"o":"m 353 750 l 353 563 l 175 621 l 133 497 l 311 440 l 201 288 l 307 211 l 417 364 l 526 211 l 632 288 l 524 440 l 700 497 l 661 621 l 482 563 l 482 750 l 353 750 z "},"#":{"ha":833,"x_min":43,"x_max":790,"o":"m 296 353 l 349 638 l 535 638 l 483 353 l 296 353 m 790 757 l 678 757 l 722 990 l 600 990 l 558 757 l 369 757 l 413 990 l 293 990 l 250 757 l 118 757 l 118 638 l 229 638 l 176 353 l 43 353 l 43 233 l 154 233 l 111 0 l 233 0 l 275 233 l 460 233 l 418 0 l 538 0 l 583 233 l 715 233 l 715 353 l 604 353 l 657 638 l 790 638 l 790 757 z "},"‾":{"ha":833,"x_min":0,"x_max":833,"o":"m 833 1111 l 0 1111 l 0 1229 l 833 1229 l 833 1111 z "},"/":{"ha":833,"x_min":139,"x_max":694,"o":"m 583 1090 l 694 1053 l 249 -257 l 139 -219 l 583 1090 z "},"\\":{"ha":833,"x_min":139,"x_max":694,"o":"m 250 1090 l 694 -219 l 585 -257 l 139 1053 l 250 1090 z "},"-":{"ha":833,"x_min":169,"x_max":664,"o":"m 664 357 l 169 357 l 169 476 l 664 476 l 664 357 z "},"–":{"ha":833,"x_min":28,"x_max":806,"o":"m 806 357 l 28 357 l 28 476 l 806 476 l 806 357 z "},"—":{"ha":833,"x_min":0,"x_max":833,"o":"m 833 357 l 0 357 l 0 476 l 833 476 l 833 357 z "},"_":{"ha":833,"x_min":56,"x_max":778,"o":"m 778 -187 l 56 -187 l 56 -69 l 778 -69 l 778 -187 z "},"‗":{"ha":833,"x_min":56,"x_max":778,"o":"m 778 -187 l 56 -187 l 56 -69 l 778 -69 l 778 -187 m 778 -371 l 56 -371 l 56 -253 l 778 -253 l 778 -371 z "},"(":{"ha":833,"x_min":189,"x_max":644,"o":"m 557 1131 l 189 750 l 189 83 l 557 -297 l 644 -200 l 328 126 l 328 707 l 644 1033 l 557 1131 z "},")":{"ha":833,"x_min":188,"x_max":646,"o":"m 281 1131 l 188 1033 l 506 707 l 506 126 l 188 -200 l 281 -297 l 646 83 l 646 750 l 281 1131 z "},"{":{"ha":833,"x_min":129,"x_max":704,"o":"m 454 1097 l 379 1018 l 379 675 l 129 417 l 379 158 l 379 -185 l 454 -264 l 704 -264 l 704 -142 l 511 -142 l 511 196 l 294 417 l 511 638 l 511 975 l 704 975 l 704 1097 l 454 1097 z "},"}":{"ha":833,"x_min":129,"x_max":704,"o":"m 129 1097 l 129 975 l 326 975 l 326 638 l 539 417 l 326 196 l 326 -142 l 129 -142 l 129 -264 l 379 -264 l 454 -185 l 454 158 l 704 417 l 454 675 l 454 1018 l 379 1097 l 129 1097 z "},"[":{"ha":833,"x_min":213,"x_max":621,"o":"m 213 1097 l 213 -264 l 621 -264 l 621 -142 l 343 -142 l 343 975 l 621 975 l 621 1097 l 213 1097 z "},"]":{"ha":833,"x_min":211,"x_max":622,"o":"m 211 1097 l 211 972 l 490 972 l 490 -139 l 211 -139 l 211 -264 l 622 -264 l 622 1097 l 211 1097 z "},"‚":{"ha":833,"x_min":310,"x_max":524,"o":"m 310 203 l 310 0 l 393 0 l 393 -132 l 325 -203 l 392 -307 l 524 -174 l 524 203 l 310 203 z "},"„":{"ha":833,"x_min":171,"x_max":663,"o":"m 449 203 l 449 0 l 532 0 l 532 -132 l 464 -203 l 531 -307 l 663 -174 l 663 203 l 449 203 m 171 203 l 171 0 l 254 0 l 254 -132 l 186 -203 l 253 -307 l 385 -174 l 385 203 l 171 203 z "},"“":{"ha":833,"x_min":83,"x_max":581,"o":"m 297 694 l 297 897 l 214 897 l 214 1029 l 282 1101 l 215 1204 l 83 1071 l 83 694 l 297 694 m 581 694 l 581 897 l 497 897 l 497 1029 l 565 1101 l 499 1204 l 367 1071 l 367 694 l 581 694 z "},"”":{"ha":833,"x_min":253,"x_max":750,"o":"m 536 1065 l 536 863 l 619 863 l 619 731 l 551 660 l 618 556 l 750 689 l 750 1065 l 536 1065 m 253 1065 l 253 863 l 336 863 l 336 731 l 268 660 l 335 556 l 467 689 l 467 1065 l 253 1065 z "},"‘":{"ha":833,"x_min":310,"x_max":524,"o":"m 524 608 l 524 811 l 440 811 l 440 943 l 508 1015 l 442 1118 l 310 985 l 310 608 l 524 608 z "},"’":{"ha":833,"x_min":310,"x_max":524,"o":"m 310 1018 l 310 815 l 393 815 l 393 683 l 325 613 l 392 508 l 524 642 l 524 1018 l 310 1018 z "},"«":{"ha":833,"x_min":128,"x_max":707,"o":"m 707 124 l 517 415 l 707 710 l 642 750 l 399 453 l 399 378 l 642 83 l 707 124 m 436 124 l 246 415 l 436 710 l 371 750 l 128 453 l 128 378 l 371 83 l 436 124 z "},"»":{"ha":833,"x_min":128,"x_max":707,"o":"m 128 124 l 193 83 l 436 378 l 436 453 l 193 750 l 128 710 l 318 415 l 128 124 m 399 124 l 464 83 l 707 378 l 707 453 l 464 750 l 399 710 l 589 415 l 399 124 z "},"‹":{"ha":833,"x_min":263,"x_max":571,"o":"m 571 124 l 381 415 l 571 710 l 506 750 l 263 453 l 263 378 l 506 83 l 571 124 z "},"›":{"ha":833,"x_min":263,"x_max":571,"o":"m 454 417 l 263 124 l 329 83 l 571 378 l 571 453 l 329 750 l 263 710 l 454 417 z "},"\"":{"ha":833,"x_min":217,"x_max":617,"o":"m 217 583 l 347 583 l 347 972 l 217 972 l 217 583 m 486 583 l 617 583 l 617 972 l 486 972 l 486 583 z "},"'":{"ha":833,"x_min":351,"x_max":483,"o":"m 351 583 l 483 583 l 483 972 l 351 972 l 351 583 z "},"@":{"ha":833,"x_min":4,"x_max":829,"o":"m 268 917 l 4 658 l 4 139 l 218 -144 l 633 -144 l 633 -35 l 271 -35 l 126 153 l 126 629 l 313 808 l 543 808 l 707 663 l 707 256 l 633 256 l 633 521 l 521 622 l 361 622 l 214 474 l 214 303 l 326 150 l 728 150 l 829 215 l 829 696 l 596 917 l 268 917 m 329 328 l 329 440 l 397 513 l 504 513 l 504 256 l 378 256 l 329 328 z "},"&":{"ha":833,"x_min":15,"x_max":818,"o":"m 246 992 l 128 867 l 128 775 l 263 576 l 15 321 l 15 138 l 110 0 l 492 0 l 585 99 l 651 0 l 796 0 l 669 183 l 818 335 l 818 489 l 613 489 l 613 371 l 681 371 l 601 285 l 417 563 l 643 797 l 643 874 l 561 992 l 246 992 m 244 815 l 299 872 l 500 872 l 519 842 l 347 664 l 244 815 m 147 158 l 147 285 l 329 475 l 517 197 l 442 119 l 172 119 l 147 158 z "},"¶":{"ha":833,"x_min":71,"x_max":763,"o":"m 199 1065 l 71 935 l 71 488 l 196 301 l 347 301 l 424 346 l 424 -111 l 547 -111 l 547 910 l 661 910 l 661 -111 l 763 -111 l 763 1065 l 199 1065 z "},"§":{"ha":833,"x_min":133,"x_max":700,"o":"m 249 1076 l 138 969 l 138 817 l 200 724 l 136 661 l 136 488 l 246 321 l 532 321 l 569 271 l 569 146 l 544 119 l 256 119 l 215 181 l 133 96 l 196 0 l 599 0 l 699 110 l 699 293 l 646 371 l 700 432 l 700 622 l 600 769 l 315 769 l 267 839 l 267 928 l 304 958 l 538 958 l 596 874 l 678 958 l 599 1076 l 249 1076 m 314 440 l 265 510 l 265 622 l 300 651 l 533 651 l 571 600 l 571 467 l 546 440 l 314 440 z "},"©":{"ha":833,"x_min":25,"x_max":808,"o":"m 278 715 l 567 715 l 667 568 l 596 493 l 514 615 l 322 615 l 278 571 l 278 365 l 333 285 l 524 285 l 607 371 l 664 285 l 568 185 l 279 185 l 167 353 l 167 600 l 278 715 m 251 838 l 25 611 l 25 279 l 251 56 l 576 56 l 808 279 l 808 611 l 576 838 l 251 838 z "},"®":{"ha":833,"x_min":139,"x_max":694,"o":"m 299 972 l 139 811 l 139 575 l 299 417 l 529 417 l 694 575 l 694 811 l 529 972 l 299 972 m 325 874 l 492 874 l 563 783 l 563 738 l 501 663 l 558 590 l 558 524 l 479 524 l 479 582 l 419 658 l 353 658 l 353 524 l 274 524 l 274 822 l 325 874 m 353 801 l 353 704 l 468 704 l 483 756 l 483 772 l 453 801 l 353 801 z "},"™":{"ha":833,"x_min":11,"x_max":822,"o":"m 11 899 l 11 824 l 122 824 l 163 764 l 163 417 l 246 417 l 246 775 l 165 824 l 361 824 l 361 417 l 446 417 l 446 738 l 546 589 l 546 586 l 635 586 l 635 682 l 739 790 l 739 417 l 822 417 l 822 899 l 739 899 l 554 708 l 476 824 l 476 899 l 11 899 z "},"°":{"ha":833,"x_min":264,"x_max":569,"o":"m 351 972 l 264 883 l 264 754 l 351 667 l 479 667 l 569 754 l 569 883 l 479 972 l 351 972 m 386 890 l 446 890 l 489 850 l 489 789 l 446 749 l 386 749 l 344 789 l 344 850 l 386 890 z "},"|":{"ha":833,"x_min":351,"x_max":482,"o":"m 351 -222 l 351 1056 l 482 1056 l 482 -222 l 351 -222 z "},"¦":{"ha":833,"x_min":351,"x_max":482,"o":"m 482 1056 l 351 1056 l 351 569 l 482 569 l 482 1056 m 482 264 l 351 264 l 351 -222 l 482 -222 l 482 264 z "},"†":{"ha":833,"x_min":179,"x_max":654,"o":"m 363 0 l 363 972 l 471 972 l 471 0 l 363 0 m 654 586 l 179 586 l 179 694 l 654 694 l 654 586 z "},"‡":{"ha":833,"x_min":179,"x_max":654,"o":"m 363 0 l 363 972 l 471 972 l 471 0 l 363 0 m 654 586 l 179 586 l 179 694 l 654 694 l 654 586 m 654 249 l 179 249 l 179 357 l 654 357 l 654 249 z "},"Ⓚ":{"ha":833,"x_min":0,"x_max":833,"o":"m 417 0 q 255 33 331 0 q 122 122 179 65 q 33 255 65 179 q 0 417 0 331 q 33 578 0 503 q 122 711 65 654 q 255 801 179 768 q 417 833 331 833 q 578 801 503 833 q 711 711 654 768 q 801 578 768 654 q 833 417 833 503 q 801 255 833 331 q 711 122 768 179 q 578 33 654 65 q 417 0 503 0 m 417 104 q 575 146 504 104 q 688 258 646 188 q 729 417 729 329 q 688 575 729 504 q 575 688 646 646 q 417 729 504 729 q 258 688 329 729 q 146 575 188 646 q 104 417 104 504 q 146 258 104 329 q 258 146 188 188 q 417 104 329 104 m 378 418 l 597 243 l 472 243 l 314 367 l 378 418 m 597 590 l 378 418 l 314 468 l 471 590 l 597 590 m 315 590 l 315 244 l 236 306 l 236 529 l 315 590 z "},"₿":{"ha":833,"x_min":110,"x_max":743,"o":"m 110 972 l 110 0 l 625 0 l 743 72 l 743 374 l 610 569 l 569 569 l 729 738 l 729 872 l 660 972 l 110 972 m 240 854 l 599 854 l 599 772 l 404 569 l 240 569 l 240 854 m 240 450 l 546 450 l 613 357 l 613 119 l 240 119 l 240 450 m 222 875 l 351 875 l 351 1147 l 222 1147 l 222 875 m 458 875 l 588 875 l 588 1147 l 458 1147 l 458 875 m 222 -181 l 351 -181 l 351 83 l 222 83 l 222 -181 m 458 -181 l 588 -181 l 588 83 l 458 83 l 458 -181 z "},"¢":{"ha":833,"x_min":115,"x_max":736,"o":"m 232 747 l 115 628 l 115 172 l 232 0 l 367 0 l 367 -211 l 497 -211 l 497 0 l 631 0 l 733 107 l 667 203 l 582 114 l 297 114 l 247 189 l 247 588 l 285 628 l 571 628 l 651 507 l 736 593 l 631 747 l 497 747 l 497 968 l 367 968 l 367 747 l 232 747 z "},"¤":{"ha":833,"x_min":111,"x_max":722,"o":"m 639 776 l 539 676 l 514 703 l 319 703 l 294 676 l 194 776 l 111 693 l 211 593 l 185 568 l 185 376 l 211 349 l 111 251 l 194 168 l 294 265 l 319 239 l 514 239 l 539 265 l 639 168 l 722 251 l 622 349 l 649 376 l 649 568 l 622 593 l 722 693 l 639 776 m 464 589 l 532 521 l 532 424 l 464 356 l 367 356 l 301 424 l 301 521 l 367 589 l 464 589 z "},"$":{"ha":833,"x_min":99,"x_max":735,"o":"m 576 118 l 228 118 l 182 182 l 99 96 l 167 0 l 353 0 l 353 -194 l 486 -194 l 486 0 l 632 0 l 735 107 l 735 389 l 632 543 l 282 543 l 232 617 l 232 811 l 268 849 l 556 849 l 615 760 l 700 843 l 619 968 l 486 968 l 486 1107 l 353 1107 l 353 968 l 218 968 l 101 846 l 101 597 l 218 424 l 567 424 l 604 372 l 604 143 l 576 118 z "},"€":{"ha":833,"x_min":76,"x_max":757,"o":"m 264 815 l 300 854 l 588 854 l 665 740 l 750 828 l 650 974 l 251 974 l 133 853 l 133 635 l 76 635 l 76 525 l 133 525 l 133 435 l 76 435 l 76 325 l 133 325 l 133 174 l 250 0 l 650 0 l 757 108 l 686 211 l 600 119 l 313 119 l 264 193 l 264 325 l 583 325 l 583 435 l 264 435 l 264 525 l 583 525 l 583 635 l 264 635 l 264 815 z "},"₺":{"ha":833,"x_min":100,"x_max":733,"o":"m 210 1039 l 340 1039 l 340 790 l 565 875 l 565 758 l 340 672 l 340 604 l 564 690 l 564 574 l 340 488 l 340 193 l 389 119 l 521 119 l 667 339 l 733 240 l 575 0 l 325 0 l 210 171 l 210 446 l 100 406 l 100 521 l 210 561 l 210 628 l 100 586 l 100 703 l 210 744 l 210 1039 z "},"£":{"ha":833,"x_min":75,"x_max":758,"o":"m 318 990 l 199 813 l 199 558 l 103 558 l 103 439 l 199 439 l 199 192 l 150 119 l 75 119 l 75 0 l 757 0 l 757 119 l 293 119 l 332 178 l 332 439 l 597 439 l 597 558 l 332 558 l 332 799 l 382 872 l 628 872 l 628 771 l 758 771 l 758 990 l 318 990 z "},"¥":{"ha":833,"x_min":100,"x_max":733,"o":"m 603 972 l 733 972 l 733 731 l 482 469 l 482 0 l 351 0 l 351 458 l 100 832 l 100 972 l 231 972 l 231 850 l 415 575 l 418 575 l 603 768 l 603 972 m 679 469 l 679 360 l 144 360 l 144 469 l 679 469 m 679 288 l 679 178 l 144 178 l 144 288 l 679 288 z "},"+":{"ha":833,"x_min":139,"x_max":694,"o":"m 357 693 l 357 476 l 139 476 l 139 357 l 357 357 l 357 140 l 476 140 l 476 357 l 694 357 l 694 476 l 476 476 l 476 693 l 357 693 z "},"−":{"ha":833,"x_min":156,"x_max":678,"o":"m 678 476 l 156 476 l 156 357 l 678 357 l 678 476 z "},"×":{"ha":833,"x_min":179,"x_max":654,"o":"m 571 654 l 417 501 l 263 656 l 179 571 l 332 417 l 179 264 l 264 179 l 417 332 l 571 178 l 654 263 l 501 417 l 654 569 l 571 654 z "},"÷":{"ha":833,"x_min":156,"x_max":678,"o":"m 678 478 l 156 478 l 156 358 l 678 358 l 678 478 m 386 732 l 343 689 l 343 624 l 386 582 l 449 582 l 493 624 l 493 689 l 449 732 l 386 732 m 385 251 l 343 210 l 343 144 l 385 101 l 449 101 l 493 144 l 493 210 l 449 251 l 385 251 z "},"=":{"ha":833,"x_min":140,"x_max":693,"o":"m 140 607 l 693 607 l 693 488 l 140 488 l 140 607 m 140 340 l 693 340 l 693 221 l 140 221 l 140 340 z "},"≠":{"ha":833,"x_min":140,"x_max":693,"o":"m 650 764 l 290 19 l 183 69 l 543 815 l 650 764 m 140 607 l 693 607 l 693 488 l 140 488 l 140 607 m 140 340 l 693 340 l 693 221 l 140 221 l 140 340 z "},">":{"ha":833,"x_min":171,"x_max":663,"o":"m 253 903 l 663 507 l 663 439 l 250 42 l 171 128 l 526 474 l 171 817 l 253 903 z "},"<":{"ha":833,"x_min":171,"x_max":663,"o":"m 581 903 l 663 817 l 307 474 l 663 128 l 583 42 l 171 439 l 171 507 l 581 903 z "},"≥":{"ha":833,"x_min":143,"x_max":692,"o":"m 535 588 l 143 410 l 192 301 l 692 525 l 692 647 l 196 868 l 147 757 l 535 588 m 692 224 l 143 218 l 143 93 l 692 93 l 692 224 z "},"≤":{"ha":833,"x_min":142,"x_max":690,"o":"m 299 588 l 686 757 l 638 868 l 142 647 l 142 525 l 642 301 l 690 410 l 299 588 m 142 224 l 142 93 l 690 93 l 690 218 l 142 224 z "},"±":{"ha":833,"x_min":139,"x_max":694,"o":"m 678 211 l 156 211 l 156 93 l 678 93 l 678 211 m 357 828 l 357 611 l 139 611 l 139 492 l 357 492 l 357 275 l 476 275 l 476 492 l 694 492 l 694 611 l 476 611 l 476 828 l 357 828 z "},"≈":{"ha":833,"x_min":118,"x_max":715,"o":"m 654 683 l 715 581 l 553 482 l 300 554 l 179 479 l 118 582 l 281 681 l 536 611 l 654 683 m 654 354 l 715 251 l 553 153 l 300 225 l 179 150 l 118 253 l 281 351 l 536 282 l 654 354 z "},"~":{"ha":833,"x_min":63,"x_max":771,"o":"m 724 521 l 540 432 l 290 524 l 63 414 l 110 313 l 297 404 l 543 310 l 771 421 l 724 521 z "},"¬":{"ha":833,"x_min":133,"x_max":700,"o":"m 700 518 l 133 518 l 133 397 l 571 397 l 571 143 l 700 143 l 700 518 z "},"^":{"ha":833,"x_min":78,"x_max":758,"o":"m 414 1010 l 647 618 l 758 669 l 475 1167 l 354 1167 l 78 675 l 189 622 l 414 1010 z "},"∞":{"ha":833,"x_min":38,"x_max":796,"o":"m 796 617 l 625 781 l 529 781 l 401 694 l 306 781 l 165 781 l 38 694 l 38 419 l 169 293 l 290 293 l 429 386 l 528 293 l 678 293 l 796 372 l 796 617 m 544 679 l 599 679 l 704 578 l 704 422 l 661 393 l 556 393 l 489 461 l 489 643 l 544 679 m 186 679 l 276 679 l 396 567 l 396 475 l 275 393 l 196 393 l 129 461 l 129 643 l 186 679 z "},"∫":{"ha":833,"x_min":76,"x_max":767,"o":"m 767 1256 l 736 1142 l 618 1142 l 542 1064 l 417 -212 l 263 -374 l 76 -374 l 108 -260 l 217 -260 l 293 -182 l 418 1094 l 572 1256 l 767 1256 z "},"∏":{"ha":833,"x_min":76,"x_max":757,"o":"m 757 1018 l 76 1018 l 76 914 l 207 914 l 207 -79 l 314 -65 l 314 914 l 521 914 l 521 -79 l 631 -65 l 631 914 l 757 914 l 757 1018 z "},"∑":{"ha":833,"x_min":107,"x_max":726,"o":"m 726 1026 l 107 1026 l 107 910 l 465 443 l 107 -6 l 107 -119 l 726 -119 l 726 0 l 242 0 l 565 396 l 565 497 l 240 907 l 726 907 l 726 1026 z "},"√":{"ha":833,"x_min":138,"x_max":979,"o":"m 979 1185 l 979 1065 l 807 1065 l 521 0 l 347 0 l 138 503 l 244 563 l 417 147 l 436 147 l 715 1185 l 979 1185 z "},"∂":{"ha":833,"x_min":90,"x_max":743,"o":"m 222 1021 l 185 911 l 333 861 l 440 797 l 561 672 l 592 556 l 422 651 l 189 563 l 90 299 l 189 36 l 424 -65 l 657 36 l 743 294 l 743 442 l 665 728 l 519 881 l 419 953 l 222 1021 m 281 124 l 214 299 l 283 482 l 414 531 l 621 414 l 625 315 l 561 124 l 424 61 l 281 124 z "},"%":{"ha":833,"x_min":0,"x_max":833,"o":"m 125 972 l 57 901 l 57 800 l 125 731 l 226 731 l 299 800 l 299 901 l 226 972 l 125 972 m 726 988 l 0 57 l 100 -24 l 833 910 l 726 988 m 604 242 l 535 172 l 535 69 l 604 0 l 706 0 l 776 71 l 776 171 l 706 242 l 604 242 z "},"‰":{"ha":833,"x_min":0,"x_max":833,"o":"m 125 972 l 57 901 l 57 800 l 125 731 l 226 731 l 299 800 l 299 901 l 226 972 l 125 972 m 785 749 l 0 436 l 44 319 l 833 638 l 785 749 m 606 240 l 536 171 l 536 69 l 606 0 l 706 0 l 776 71 l 776 171 l 706 240 l 606 240 m 257 240 l 188 171 l 188 69 l 257 0 l 357 0 l 428 71 l 428 171 l 357 240 l 257 240 z "},"∀":{"ha":833,"x_min":110,"x_max":724,"o":"m 110 239 l 342 0 l 724 0 l 724 972 l 594 972 l 594 522 l 239 522 l 239 972 l 110 972 l 110 239 m 239 274 l 239 403 l 594 403 l 594 119 l 389 119 l 239 274 z "},"↑":{"ha":833,"x_min":-14,"x_max":847,"o":"m 847 531 l 761 447 l 418 804 l 72 449 l -14 528 l 383 940 l 451 940 l 847 531 m 357 851 l 476 851 l 476 135 l 357 135 l 357 851 z "},"↗":{"ha":833,"x_min":100,"x_max":736,"o":"m 728 154 l 607 157 l 617 651 l 121 644 l 115 763 l 689 772 l 736 724 l 728 154 m 607 728 l 692 644 l 185 136 l 100 221 l 607 728 z "},"→":{"ha":833,"x_min":28,"x_max":833,"o":"m 424 903 l 833 507 l 833 439 l 421 42 l 342 128 l 697 474 l 340 817 l 424 903 m 744 413 l 28 413 l 28 532 l 744 532 l 744 413 z "},"↘":{"ha":833,"x_min":103,"x_max":739,"o":"m 121 157 l 124 278 l 618 268 l 611 764 l 729 769 l 739 196 l 690 149 l 121 157 m 694 278 l 611 193 l 103 700 l 188 785 l 694 278 z "},"↓":{"ha":833,"x_min":-14,"x_max":847,"o":"m -14 465 l 72 549 l 415 192 l 761 547 l 847 468 l 450 56 l 382 56 l -14 465 m 476 144 l 357 144 l 357 861 l 476 861 l 476 144 z "},"↙":{"ha":833,"x_min":115,"x_max":751,"o":"m 124 764 l 244 761 l 235 267 l 731 274 l 736 156 l 163 146 l 115 194 l 124 764 m 244 190 l 160 274 l 667 782 l 751 697 l 244 190 z "},"←":{"ha":833,"x_min":0,"x_max":806,"o":"m 410 903 l 493 817 l 136 474 l 492 128 l 413 42 l 0 439 l 0 507 l 410 903 m 89 413 l 89 532 l 806 532 l 806 413 l 89 413 z "},"↖":{"ha":833,"x_min":113,"x_max":749,"o":"m 731 761 l 728 640 l 233 650 l 240 154 l 122 149 l 113 722 l 161 769 l 731 761 m 157 640 l 240 725 l 749 218 l 664 133 l 157 640 z "},"↔":{"ha":833,"x_min":-4,"x_max":838,"o":"m 219 701 l 303 615 l 133 451 l 303 286 l 222 200 l -4 418 l -4 485 l 219 701 m 71 392 l 71 510 l 769 510 l 769 392 l 71 392 m 618 207 l 536 294 l 701 454 l 538 615 l 617 701 l 838 489 l 838 421 l 618 207 z "},"↕":{"ha":833,"x_min":165,"x_max":667,"o":"m 165 218 l 253 301 l 415 132 l 581 301 l 667 222 l 450 -4 l 382 -4 l 165 218 m 476 69 l 357 69 l 357 769 l 476 769 l 476 69 m 660 618 l 572 535 l 413 700 l 251 536 l 165 615 l 379 838 l 446 838 l 660 618 z "},"◌":{"ha":833,"x_min":-167,"x_max":1000,"o":"m 489 1067 q 453 1069 471 1068 q 417 1069 435 1069 l 414 1069 l 414 1021 l 417 1021 q 451 1020 433 1021 q 483 1018 468 1019 l 489 1067 m 275 1001 q 310 1012 293 1008 q 346 1017 328 1015 l 338 1064 q 301 1059 319 1063 q 264 1050 282 1056 l 275 1001 m 638 1028 q 565 1050 604 1042 l 553 1004 q 587 994 569 1000 q 619 982 604 989 l 638 1028 m 147 949 q 178 966 163 958 q 210 981 193 974 l 192 1025 q 156 1010 174 1018 q 124 990 139 1001 l 147 949 m 769 951 q 739 974 756 963 q 707 994 722 985 l 682 951 q 740 913 713 935 l 769 951 m 38 864 q 63 887 50 875 q 89 910 75 899 l 60 947 q 31 924 46 936 q 3 897 17 913 l 38 864 m 878 844 q 853 874 867 860 q 828 901 840 888 l 793 868 q 817 842 806 854 q 839 815 829 829 l 878 844 m -47 753 q -28 783 -39 768 q -8 811 -18 797 l -47 840 q -69 808 -58 825 q -90 776 -79 792 l -47 753 m 956 714 q 940 748 947 732 q 921 782 932 764 l 878 757 q 896 727 888 743 q 910 694 904 711 l 956 714 m -100 622 q -90 657 -96 640 q -79 689 -85 674 l -124 708 q -136 672 -131 690 q -147 636 -142 654 l -100 622 m 994 567 q 989 605 992 586 q 979 642 986 624 l 932 629 q 941 594 938 611 q 946 561 944 578 l 994 567 m -118 486 q -117 521 -118 504 q -114 554 -115 538 l -162 561 q -166 524 -165 543 q -167 486 -167 506 l -167 485 l -118 485 l -118 486 m 994 411 q 999 449 997 431 q 1000 486 1000 468 l 1000 490 l 951 490 l 951 486 q 951 452 951 469 q 949 417 950 435 l 994 411 m -100 347 q -108 380 -104 363 q -114 415 -111 397 l -162 408 q -156 372 -160 390 q -147 333 -151 353 l -100 347 m 956 263 q 969 299 963 281 q 981 335 976 317 l 935 349 q 924 315 931 331 q 911 282 918 299 l 956 263 m -46 218 q -62 249 -54 233 q -76 281 -69 265 l -121 261 q -106 226 -114 243 q -89 193 -97 208 l -46 218 m 881 131 q 902 163 892 147 q 922 194 913 179 l 881 221 q 861 190 871 204 q 842 163 851 175 l 881 131 m 40 107 q 15 133 26 119 q -7 160 4 147 l -46 131 q -22 101 -35 115 q 6 72 -8 86 l 40 107 m 774 24 q 803 48 789 35 q 829 75 817 61 l 794 110 q 770 85 783 96 q 742 63 757 74 l 774 24 m 151 22 q 120 41 135 31 q 93 61 106 51 l 64 22 q 94 1 79 13 q 125 -19 110 -10 l 151 22 m 640 -51 q 708 -19 676 -36 l 686 24 q 653 7 669 15 q 621 -7 638 -1 l 640 -51 m 279 -31 q 247 -20 264 -26 q 213 -7 229 -14 l 193 -54 q 231 -67 213 -61 q 268 -78 249 -72 l 279 -31 m 493 -93 q 531 -86 513 -90 q 569 -78 550 -82 l 556 -31 q 522 -38 539 -35 q 488 -44 506 -42 l 493 -93 m 417 -97 l 417 -49 q 383 -47 400 -49 q 347 -44 365 -46 l 342 -93 q 379 -96 361 -94 q 417 -97 397 -97 z "},"◊":{"ha":833,"x_min":92,"x_max":742,"o":"m 475 979 l 354 979 l 92 489 l 354 0 l 475 0 l 742 490 l 475 979 m 419 879 l 624 488 l 419 99 l 414 99 l 210 488 l 414 879 l 419 879 z "},"─":{"ha":833,"x_min":-7,"x_max":840,"o":"m 840 542 l 840 431 l -7 431 l -7 542 l 840 542 z "},"│":{"ha":833,"x_min":361,"x_max":472,"o":"m 472 1389 l 472 -694 l 361 -694 l 361 1389 l 472 1389 z "},"┌":{"ha":833,"x_min":361,"x_max":840,"o":"m 840 542 l 840 431 l 472 431 l 472 -694 l 361 -694 l 361 542 l 840 542 z "},"┐":{"ha":833,"x_min":-7,"x_max":472,"o":"m 472 542 l 472 -694 l 361 -694 l 361 431 l -7 431 l -7 542 l 472 542 z "},"└":{"ha":833,"x_min":361,"x_max":840,"o":"m 472 1389 l 472 542 l 840 542 l 840 431 l 361 431 l 361 1389 l 472 1389 z "},"┘":{"ha":833,"x_min":-7,"x_max":472,"o":"m 472 1389 l 472 431 l -7 431 l -7 542 l 361 542 l 361 1389 l 472 1389 z "},"├":{"ha":833,"x_min":361,"x_max":840,"o":"m 472 1389 l 472 542 l 840 542 l 840 431 l 472 431 l 472 -694 l 361 -694 l 361 1389 l 472 1389 z "},"┤":{"ha":833,"x_min":-7,"x_max":472,"o":"m 472 1389 l 472 -694 l 361 -694 l 361 431 l -7 431 l -7 542 l 361 542 l 361 1389 l 472 1389 z "},"┬":{"ha":833,"x_min":-7,"x_max":840,"o":"m 840 542 l 840 431 l 472 431 l 472 -694 l 361 -694 l 361 431 l -7 431 l -7 542 l 840 542 z "},"┴":{"ha":833,"x_min":-7,"x_max":840,"o":"m 472 1389 l 472 542 l 840 542 l 840 431 l -7 431 l -7 542 l 361 542 l 361 1389 l 472 1389 z "},"┼":{"ha":833,"x_min":-7,"x_max":840,"o":"m 472 1389 l 472 542 l 840 542 l 840 431 l 472 431 l 472 -694 l 361 -694 l 361 431 l -7 431 l -7 542 l 361 542 l 361 1389 l 472 1389 z "},"̈":{"ha":0,"x_min":194,"x_max":639,"o":"m 194 875 l 194 1028 l 347 1028 l 347 875 l 194 875 m 486 875 l 486 1028 l 639 1028 l 639 875 l 486 875 z "},"̇":{"ha":0,"x_min":338,"x_max":496,"o":"m 338 885 l 338 1043 l 496 1043 l 496 885 l 338 885 z "},"̀":{"ha":0,"x_min":254,"x_max":589,"o":"m 539 876 l 589 951 l 331 1121 l 254 1014 l 539 876 z "},"́":{"ha":0,"x_min":244,"x_max":579,"o":"m 294 876 l 579 1014 l 503 1121 l 244 951 l 294 876 z "},"̋":{"ha":0,"x_min":167,"x_max":678,"o":"m 247 819 l 439 1071 l 319 1136 l 167 867 l 247 819 m 460 819 l 678 1049 l 567 1126 l 383 876 l 460 819 z "},"̂":{"ha":0,"x_min":185,"x_max":647,"o":"m 451 1079 l 383 1079 l 185 929 l 251 857 l 415 960 l 582 857 l 647 929 l 451 1079 z "},"̌":{"ha":0,"x_min":185,"x_max":647,"o":"m 451 939 l 647 1088 l 582 1161 l 415 1058 l 251 1161 l 185 1088 l 383 939 l 451 939 z "},"̆":{"ha":0,"x_min":175,"x_max":658,"o":"m 175 1025 l 175 1111 l 328 1111 l 328 982 l 506 982 l 506 1111 l 658 1111 l 658 1025 l 514 879 l 319 879 l 175 1025 z "},"̊":{"ha":0,"x_min":264,"x_max":569,"o":"m 351 1111 l 264 1022 l 264 893 l 351 806 l 479 806 l 569 893 l 569 1022 l 479 1111 l 351 1111 m 386 1029 l 446 1029 l 489 988 l 489 928 l 446 888 l 386 888 l 344 928 l 344 988 l 386 1029 z "},"̃":{"ha":0,"x_min":131,"x_max":703,"o":"m 651 1110 l 539 1042 l 282 1110 l 131 1019 l 182 932 l 300 1004 l 551 932 l 703 1022 l 651 1110 z "},"̄":{"ha":0,"x_min":225,"x_max":608,"o":"m 608 992 l 225 992 l 225 1111 l 608 1111 l 608 992 z "},"̅":{"ha":0,"x_min":0,"x_max":833,"o":"m 833 1111 l 0 1111 l 0 1229 l 833 1229 l 833 1111 z "},"̍":{"ha":0,"x_min":347,"x_max":486,"o":"m 347 722 l 347 1038 l 486 1038 l 486 722 l 347 722 z "},"̎":{"ha":0,"x_min":222,"x_max":611,"o":"m 222 722 l 222 1038 l 361 1038 l 361 722 l 222 722 m 472 722 l 472 1038 l 611 1038 l 611 722 l 472 722 z "},"̐":{"ha":0,"x_min":175,"x_max":658,"o":"m 175 1025 l 175 1111 l 306 1111 l 306 982 l 528 982 l 528 1111 l 658 1111 l 658 1025 l 514 879 l 319 879 l 175 1025 m 347 1076 l 347 1215 l 486 1215 l 486 1076 l 347 1076 z "},"̒":{"ha":0,"x_min":310,"x_max":482,"o":"m 482 732 l 482 889 l 399 889 l 399 964 l 467 1036 l 400 1097 l 310 1007 l 310 732 l 482 732 z "},"̓":{"ha":0,"x_min":310,"x_max":524,"o":"m 310 1111 l 310 908 l 393 908 l 393 776 l 325 704 l 392 601 l 524 735 l 524 1111 l 310 1111 z "},"̔":{"ha":0,"x_min":310,"x_max":524,"o":"m 524 1111 l 310 1111 l 310 735 l 442 601 l 508 704 l 440 776 l 440 908 l 524 908 l 524 1111 z "},"̖":{"ha":0,"x_min":254,"x_max":589,"o":"m 539 -244 l 589 -169 l 331 0 l 254 -107 l 539 -244 z "},"̗":{"ha":0,"x_min":244,"x_max":579,"o":"m 294 -244 l 579 -107 l 503 0 l 244 -169 l 294 -244 z "},"̣":{"ha":0,"x_min":338,"x_max":496,"o":"m 338 -240 l 338 -83 l 496 -83 l 496 -240 l 338 -240 z "},"̤":{"ha":0,"x_min":194,"x_max":639,"o":"m 194 -218 l 194 -65 l 347 -65 l 347 -218 l 194 -218 m 486 -218 l 486 -65 l 639 -65 l 639 -218 l 486 -218 z "},"̥":{"ha":0,"x_min":264,"x_max":569,"o":"m 351 -65 l 264 -154 l 264 -282 l 351 -369 l 479 -369 l 569 -282 l 569 -154 l 479 -65 l 351 -65 m 386 -146 l 446 -146 l 489 -187 l 489 -249 l 446 -289 l 386 -289 l 344 -249 l 344 -187 l 386 -146 z "},"̦":{"ha":0,"x_min":268,"x_max":533,"o":"m 350 -393 l 533 -136 l 418 -74 l 268 -344 l 350 -393 z "},"̧":{"ha":0,"x_min":338,"x_max":579,"o":"m 338 -169 l 476 -169 l 338 0 l 472 0 l 579 -118 l 579 -175 l 468 -267 l 338 -267 l 338 -169 z "},"̨":{"ha":0,"x_min":296,"x_max":538,"o":"m 538 -169 l 399 -169 l 538 0 l 417 14 l 296 -118 l 296 -175 l 407 -268 l 538 -268 l 538 -169 z "},"̭":{"ha":0,"x_min":185,"x_max":647,"o":"m 451 -65 l 383 -65 l 185 -214 l 251 -287 l 415 -185 l 582 -287 l 647 -214 l 451 -65 z "},"̮":{"ha":0,"x_min":175,"x_max":658,"o":"m 175 -151 l 175 -65 l 328 -65 l 328 -194 l 506 -194 l 506 -65 l 658 -65 l 658 -151 l 514 -296 l 319 -296 l 175 -151 z "},"̱":{"ha":0,"x_min":225,"x_max":608,"o":"m 608 -183 l 225 -183 l 225 -65 l 608 -65 l 608 -183 z "},"̵":{"ha":0,"x_min":236,"x_max":597,"o":"m 597 357 l 236 357 l 236 476 l 597 476 l 597 357 z "},"̶":{"ha":0,"x_min":0,"x_max":833,"o":"m 833 357 l 0 357 l 0 476 l 833 476 l 833 357 z "},"̷":{"ha":0,"x_min":178,"x_max":628,"o":"m 517 894 l 178 -104 l 289 -142 l 628 857 l 517 894 z "},"̸":{"ha":0,"x_min":176,"x_max":694,"o":"m 583 1090 l 694 1053 l 288 -144 l 176 -107 l 583 1090 z "},"¨":{"ha":833,"x_min":185,"x_max":649,"o":"m 185 871 l 185 1038 l 351 1038 l 351 871 l 185 871 m 482 871 l 482 1038 l 649 1038 l 649 871 l 482 871 z "},"˙":{"ha":833,"x_min":338,"x_max":496,"o":"m 338 871 l 338 1028 l 496 1028 l 496 871 l 338 871 z "},"`":{"ha":833,"x_min":254,"x_max":589,"o":"m 539 876 l 589 951 l 331 1121 l 254 1014 l 539 876 z "},"´":{"ha":833,"x_min":244,"x_max":579,"o":"m 294 876 l 579 1014 l 503 1121 l 244 951 l 294 876 z "},"˝":{"ha":833,"x_min":167,"x_max":678,"o":"m 247 819 l 439 1071 l 319 1136 l 167 867 l 247 819 m 460 819 l 678 1049 l 567 1126 l 383 876 l 460 819 z "},"ˆ":{"ha":833,"x_min":185,"x_max":647,"o":"m 451 1079 l 383 1079 l 185 929 l 251 857 l 415 960 l 582 857 l 647 929 l 451 1079 z "},"ˇ":{"ha":833,"x_min":185,"x_max":647,"o":"m 451 939 l 647 1088 l 582 1161 l 415 1058 l 251 1161 l 185 1088 l 383 939 l 451 939 z "},"˘":{"ha":833,"x_min":175,"x_max":658,"o":"m 175 1025 l 175 1111 l 328 1111 l 328 982 l 506 982 l 506 1111 l 658 1111 l 658 1025 l 514 879 l 319 879 l 175 1025 z "},"˚":{"ha":833,"x_min":264,"x_max":569,"o":"m 351 1111 l 264 1022 l 264 893 l 351 806 l 479 806 l 569 893 l 569 1022 l 479 1111 l 351 1111 m 386 1029 l 446 1029 l 489 988 l 489 928 l 446 888 l 386 888 l 344 928 l 344 988 l 386 1029 z "},"˜":{"ha":833,"x_min":131,"x_max":703,"o":"m 651 1110 l 539 1042 l 282 1110 l 131 1019 l 182 932 l 300 1004 l 551 932 l 703 1022 l 651 1110 z "},"¯":{"ha":833,"x_min":225,"x_max":608,"o":"m 608 992 l 225 992 l 225 1111 l 608 1111 l 608 992 z "},"¸":{"ha":833,"x_min":338,"x_max":579,"o":"m 338 -169 l 476 -169 l 338 0 l 472 0 l 579 -118 l 579 -175 l 468 -267 l 338 -267 l 338 -169 z "},"˛":{"ha":833,"x_min":296,"x_max":538,"o":"m 538 -169 l 399 -169 l 538 0 l 403 0 l 296 -118 l 296 -175 l 407 -268 l 538 -268 l 538 -169 z "},"":{"ha":833,"x_min":29,"x_max":833,"o":"m 833 -56 l 140 -56 l 140 1042 l 833 1042 l 833 1143 l 29 1143 l 29 -157 l 833 -157 l 833 -56 z "},"":{"ha":833,"x_min":-10,"x_max":843,"o":"m -10 -56 l -10 -157 l 843 -157 l 843 -56 l -10 -56 m -10 1143 l -10 1042 l 843 1042 l 843 1143 l -10 1143 z "},"":{"ha":833,"x_min":0,"x_max":804,"o":"m 0 -56 l 0 -157 l 804 -157 l 804 1143 l 0 1143 l 0 1042 l 693 1042 l 693 -56 l 0 -56 z "},"":{"ha":833,"x_min":29,"x_max":833,"o":"m 301 894 l 301 75 l 833 75 l 833 894 l 301 894 m 833 -56 l 140 -56 l 140 1042 l 833 1042 l 833 1143 l 29 1143 l 29 -157 l 833 -157 l 833 -56 z "},"":{"ha":833,"x_min":-10,"x_max":843,"o":"m -10 894 l -10 75 l 843 75 l 843 894 l -10 894 m -10 -56 l -10 -157 l 843 -157 l 843 -56 l -10 -56 m -10 1143 l -10 1042 l 843 1042 l 843 1143 l -10 1143 z "},"":{"ha":833,"x_min":0,"x_max":804,"o":"m 532 894 l 0 894 l 0 75 l 532 75 l 532 894 m 0 -56 l 0 -157 l 804 -157 l 804 1143 l 0 1143 l 0 1042 l 693 1042 l 693 -56 l 0 -56 z "}}}
